<?xml version="1.0" encoding="utf-8"?>
<!-- Generator: Adobe Illustrator 21.0.0, SVG Export Plug-In . SVG Version: 6.00 Build 0)  -->
<svg version="1.1" id="图层_1" xmlns="http://www.w3.org/2000/svg" xmlns:xlink="http://www.w3.org/1999/xlink" x="0px" y="0px"
	 viewBox="0 0 40 40" style="enable-background:new 0 0 40 40;" xml:space="preserve">
<style type="text/css">
	.st0{fill:#F5EECB;}
	.st1{fill:#E8363F;}
</style>
<circle class="st0" cx="20" cy="20" r="20"/>
<path class="st1" d="M28.8,30.9h-6.9l0,0H11c-0.4,0-0.9-0.4-0.9-0.9V9.9c0-0.4,0.4-0.9,0.9-0.9h10.8c0.6,0,0.9,0.4,0.9,0.9v7.3h6.2
	c0.6,0,1.1,0.3,1.1,0.7V30C29.9,30.6,29.5,30.9,28.8,30.9z M20,13.4h-7.2V15H20V13.4z M20,17.8h-7.2v1.6H20V17.8z M20,22.2h-7.2v1.6
	H20V22.2z M27.2,20.6h-3.9v3.3h3.9V20.6z"/>
</svg>
