<?xml version="1.0" encoding="utf-8"?>
<!-- Generator: Adobe Illustrator 21.0.0, SVG Export Plug-In . SVG Version: 6.00 Build 0)  -->
<svg version="1.1" id="图层_1" xmlns="http://www.w3.org/2000/svg" xmlns:xlink="http://www.w3.org/1999/xlink" x="0px" y="0px"
	 viewBox="0 0 30 30" style="enable-background:new 0 0 30 30;" xml:space="preserve">
<style type="text/css">
	.st0{fill:#3098D8;}
	.st1{fill:#FFFFFF;}
</style>
<path class="st0" d="M27,30H3c-1.6,0-3-1.4-3-3V3c0-1.6,1.4-3,3-3h24c1.6,0,3,1.4,3,3v24C30,28.6,28.6,30,27,30z"/>
<path class="st1" d="M22.7,9.3h-2.6v-1c0-1.3-1-2.3-2.3-2.3h-5.7c-1.3,0-2.3,1-2.3,2.3v1H7.3C6,9.3,5,10.3,5,11.6v9.9
	c0,1.3,1,2.3,2.3,2.3h15.5c1.3,0,2.3-1,2.3-2.3v-4.8c-1.4,0-2.7,0-4.1,0v1c0,0.5-0.5,1-1,1s-1-0.5-1-1v-1h-7.9v1c0,0.5-0.5,1-1,1
	s-1-0.5-1-1v-1c-1.4,0-2.7,0-4.1,0v-1.3c1.4,0,2.7,0,4.1,0c0-0.5,0.5-1,1-1s1,0.5,1,1h7.8c0-0.5,0.5-1,1-1s1,0.5,1,1
	c1.4,0,2.7,0,4.1,0v-3.8C25,10.3,23.9,9.3,22.7,9.3L22.7,9.3z M11.2,8.3c0-0.5,0.4-0.9,0.9-0.9h5.7c0.5,0,0.9,0.4,0.9,0.9v1h-7.6v-1
	H11.2z"/>
</svg>
