<?xml version="1.0" encoding="utf-8"?>
<!-- Generator: Adobe Illustrator 21.0.0, SVG Export Plug-In . SVG Version: 6.00 Build 0)  -->
<svg version="1.1" id="图层_1" xmlns="http://www.w3.org/2000/svg" xmlns:xlink="http://www.w3.org/1999/xlink" x="0px" y="0px"
	 viewBox="0 0 40 40" style="enable-background:new 0 0 40 40;" xml:space="preserve">
<style type="text/css">
	.st0{fill:#F5EECB;}
	.st1{fill:#E8363F;}
</style>
<circle class="st0" cx="20" cy="20" r="20"/>
<path class="st1" d="M32.3,21.6c-0.7-1.3-1.5-1.3-2-1.6c-1.3-0.3-2.9,0.1-4.7,1.3c0.1,0.4,0.2,1.3,0,2c-0.2,0.7-1,1.9-3.4,1.5
	c-1.5-0.3-3.8-0.7-6.9-1.3c-0.5-0.1-0.9-0.5-0.7-0.9l0,0c0.1-0.4,0.5-0.7,1-0.6l7.2,1.5c0.2,0.1,1.5,0.2,1.6-0.4
	c0.4-1.2-0.5-1.6-0.6-1.8c-0.1,0-2.4-0.7-7-2.1c-0.7-0.2-1.6-0.3-2.4-0.3h-3.1c-0.5,0-0.9,0.4-0.9,0.9v8c0,0.5,0.3,0.9,0.9,0.9
	l10,1.6c0.9,0.1,1.8,0,2.5-0.4c4.5-2.5,7.1-4.1,7.9-4.6C32.1,24.9,32.9,23.1,32.3,21.6z M8.7,18.8c0.6,0,1.2,0.5,1.2,1.2v8.1
	c0,0.6-0.5,1.2-1.2,1.2c-0.6,0-1.2-0.5-1.2-1.2V20C7.5,19.4,8,18.8,8.7,18.8z M22.9,9.6c2.1,0,3.8,1.6,3.8,3.8s-1.6,3.8-3.8,3.8
	s-3.8-1.6-3.8-3.8C19.1,11.4,20.7,9.7,22.9,9.6C22.7,9.6,22.9,9.6,22.9,9.6z"/>
</svg>
