<?xml version="1.0" encoding="utf-8"?>
<!-- Generator: Adobe Illustrator 21.0.0, SVG Export Plug-In . SVG Version: 6.00 Build 0)  -->
<svg version="1.1" id="图层_1" xmlns="http://www.w3.org/2000/svg" xmlns:xlink="http://www.w3.org/1999/xlink" x="0px" y="0px"
	 viewBox="0 0 30 30" style="enable-background:new 0 0 30 30;" xml:space="preserve">
<style type="text/css">
	.st0{fill:#F3725C;}
	.st1{fill:#FFFFFF;}
</style>
<path class="st0" d="M26.8,30.6h-24c-1.6,0-3-1.4-3-3v-24c0-1.6,1.4-3,3-3h24c1.6,0,3,1.4,3,3v24C29.8,29.2,28.4,30.6,26.8,30.6z"/>
<path class="st1" d="M10.7,25.6V12.3c0-0.5-0.4-0.9-0.9-0.9h-4c-0.5,0-0.9,0.5-0.9,0.9v13.3C4.9,25.6,10.7,25.6,10.7,25.6z
	 M17.7,25.6v-19c0-0.5-0.4-1-0.9-1h-4c-0.5,0-0.9,0.5-0.9,1v19H17.7z M24.7,25.6V13.5c0-0.5-0.4-1-0.9-1h-4c-0.5,0-0.9,0.5-0.9,1
	v12.1L24.7,25.6L24.7,25.6z"/>
</svg>
