<?xml version="1.0" encoding="utf-8"?>
<!-- Generator: Adobe Illustrator 21.0.0, SVG Export Plug-In . SVG Version: 6.00 Build 0)  -->
<svg version="1.1" id="图层_1" xmlns="http://www.w3.org/2000/svg" xmlns:xlink="http://www.w3.org/1999/xlink" x="0px" y="0px"
	 viewBox="0 0 30 30" style="enable-background:new 0 0 30 30;" xml:space="preserve">
<style type="text/css">
	.st0{fill:#BA56E8;}
	.st1{fill:#FFFFFF;}
</style>
<path class="st0" d="M27,30H3c-1.6,0-3-1.4-3-3V3c0-1.6,1.4-3,3-3h24c1.6,0,3,1.4,3,3v24C30,28.6,28.6,30,27,30z"/>
<g>
	<path class="st1" d="M19.3,6.1H6.4C5.6,6.1,5,6.8,5,7.5v15.4c0,0.8,0.7,1.4,1.4,1.4H15h0.1c-0.2-0.3-0.3-0.8-0.3-1.2v-0.7
		c0-1.3,1-2.3,2.3-2.3h0.2l0.9-1.1c-0.3-0.3-0.6-0.7-0.7-1.2c-0.5-1.7,0.3-3.5,2-4c0.3-0.1,0.7-0.1,1-0.1c0.1,0,0.2,0,0.3,0V7.6
		C20.7,6.8,20,6.1,19.3,6.1z M8.5,9.8h3.7c0.4,0,0.7,0.3,0.7,0.7s-0.3,0.7-0.7,0.7H8.5c-0.4,0-0.7-0.3-0.7-0.7
		C7.7,10.1,8.1,9.8,8.5,9.8z M14.3,19.7H8.5c-0.4,0-0.7-0.3-0.7-0.7c0-0.4,0.3-0.7,0.7-0.7h5.9c0.4,0,0.7,0.3,0.7,0.7
		C15.1,19.4,14.7,19.7,14.3,19.7z M15.4,15.5H8.5c-0.4,0-0.7-0.3-0.7-0.7S8.1,14,8.5,14h6.9c0.4,0,0.7,0.3,0.7,0.7
		S15.8,15.5,15.4,15.5z"/>
	<path class="st1" d="M23.8,21.2h-0.7l-2-2.4c1.1-0.3,1.7-1.5,1.3-2.7c-0.3-0.9-1.1-1.4-2-1.4c-0.2,0-0.5,0-0.7,0.1
		c-1.1,0.3-1.7,1.5-1.3,2.7c0.2,0.6,0.7,1.1,1.3,1.3l-1.9,2.4h-0.7c-0.7,0-1.2,0.5-1.2,1.2v0.7c0,0.7,0.5,1.2,1.2,1.2h6.7
		c0.7,0,1.2-0.5,1.2-1.2v-0.8C25,21.8,24.5,21.2,23.8,21.2z"/>
</g>
</svg>
