<?xml version="1.0" encoding="utf-8"?>
<!-- Generator: Adobe Illustrator 21.0.0, SVG Export Plug-In . SVG Version: 6.00 Build 0)  -->
<svg version="1.1" id="图层_1" xmlns="http://www.w3.org/2000/svg" xmlns:xlink="http://www.w3.org/1999/xlink" x="0px" y="0px"
	 viewBox="0 0 30 30" style="enable-background:new 0 0 30 30;" xml:space="preserve">
<style type="text/css">
	.st0{fill:#F3725C;}
	.st1{fill:#FFFFFF;}
</style>
<path class="st0" d="M27,30.1H3c-1.6,0-3-1.4-3-3v-24c0-1.6,1.4-3,3-3h24c1.6,0,3,1.4,3,3v24C30,28.8,28.6,30.1,27,30.1z"/>
<g>
	<path class="st1" d="M15,23.9l1-1c-0.4-0.6-0.7-1.4-0.9-2.1h-1.4c-0.7,0-1.2-0.6-1.2-1.2s0.6-1.2,1.2-1.2h1.4
		c0.2-0.8,0.5-1.5,0.9-2.2l-1-1c-0.2-0.2-0.3-0.4-0.3-0.6c-1-0.6-2.1-1-3.3-1c-4.6,0-8.2,5.2-8.2,11.3c0,0.2,0,0.4,0,0.6h11.8
		C14.6,25.1,14.6,24.4,15,23.9z"/>
</g>
<path class="st1" d="M27.3,18.8h-1.1c-0.1-0.6-0.4-1.2-0.7-1.6l0.7-0.7c0.4-0.4,0.4-1,0-1.3c-0.4-0.4-1-0.4-1.3,0l-0.7,0.7
	c-0.5-0.3-1.1-0.6-1.7-0.7v-1c0-0.5-0.4-0.9-0.9-0.9c-0.5,0-0.9,0.4-0.9,0.9v1c-0.6,0.1-1.2,0.4-1.7,0.7L18.3,15
	c-0.4-0.4-1-0.4-1.3,0c-0.4,0.4-0.4,1,0,1.3l0.7,0.7c-0.3,0.5-0.6,1.1-0.7,1.7h-1.1c-0.5,0-0.9,0.4-0.9,0.9s0.4,0.9,0.9,0.9H17
	c0.1,0.6,0.4,1.2,0.7,1.6L16.9,23c-0.4,0.4-0.4,1,0,1.3c0.4,0.4,1,0.4,1.3,0l0.7-0.7c0.5,0.3,1.1,0.6,1.7,0.7v1
	c0,0.5,0.4,0.9,0.9,0.9c0.5,0,0.9-0.4,0.9-0.9v-1c0.6-0.1,1.2-0.4,1.7-0.7l0.7,0.7c0.4,0.4,1,0.4,1.3,0c0.4-0.4,0.4-1,0-1.3
	l-0.7-0.7c0.3-0.5,0.6-1.1,0.7-1.6h1.1c0.5,0,0.9-0.4,0.9-0.9C28.3,19.2,27.8,18.8,27.3,18.8z M21.6,21.6c-1,0-1.9-0.9-1.9-1.9
	s0.9-1.9,1.9-1.9s1.9,0.9,1.9,1.9S22.7,21.6,21.6,21.6z"/>
<path class="st1" d="M8,8.7c0,2.2,1.8,3.8,4,3.8s4-1.6,4-3.8s-1.8-3.8-4-3.8S8,6.6,8,8.7z"/>
</svg>
