<?xml version="1.0" encoding="utf-8"?>
<!-- Generator: Adobe Illustrator 21.0.0, SVG Export Plug-In . SVG Version: 6.00 Build 0)  -->
<svg version="1.1" id="图层_1" xmlns="http://www.w3.org/2000/svg" xmlns:xlink="http://www.w3.org/1999/xlink" x="0px" y="0px"
	 viewBox="0 0 30 30" style="enable-background:new 0 0 30 30;" xml:space="preserve">
<style type="text/css">
	.st0{fill:#F7A23C;}
	.st1{fill:#FFFFFF;}
</style>
<path class="st0" d="M27,30H3c-1.7,0-3-1.3-3-3V3c0-1.7,1.3-3,3-3h24c1.7,0,3,1.3,3,3v24C30,28.7,28.7,30,27,30z"/>
<path class="st1" d="M21.2,25H8.9c-1.2,0-2.2-1-2.2-2.2V7.2C6.7,6,7.7,5,8.9,5h12.2c1.2,0,2.2,1,2.2,2.2v15.6
	C23.4,24,22.4,25,21.2,25z M14.1,12.4C15,12,15.6,11,15.6,9.9c0-1.5-1.3-2.8-2.8-2.8S9.9,8.4,9.9,9.9c0,1.1,0.6,2,1.5,2.5
	c-1.5,0.5-2.6,2-2.6,3.7h1.1c0-1.5,1.3-2.8,2.8-2.8s2.8,1.3,2.8,2.8h1.1C16.7,14.4,15.6,13,14.1,12.4z M21.2,14.4h-3.3v1.1h3.3V14.4
	z M21.2,17.8H8.9v1.1h12.2L21.2,17.8L21.2,17.8z M21.2,21.1H8.9v1.1h12.2L21.2,21.1L21.2,21.1z M12.8,11.6c-0.9,0-1.7-0.7-1.7-1.7
	s0.7-1.7,1.7-1.7c0.9,0,1.7,0.7,1.7,1.7S13.7,11.6,12.8,11.6z"/>
</svg>
