<?xml version="1.0" encoding="utf-8"?>
<!-- Generator: Adobe Illustrator 21.0.0, SVG Export Plug-In . SVG Version: 6.00 Build 0)  -->
<svg version="1.1" id="图层_1" xmlns="http://www.w3.org/2000/svg" xmlns:xlink="http://www.w3.org/1999/xlink" x="0px" y="0px"
	 viewBox="0 0 30 30" style="enable-background:new 0 0 30 30;" xml:space="preserve">
<style type="text/css">
	.st0{fill:#F7A23C;}
	.st1{fill:#FFFFFF;}
</style>
<path class="st0" d="M27,30H3c-1.7,0-3-1.4-3-3V3c0-1.6,1.4-3,3-3h24c1.6,0,3,1.4,3,3v24C30,28.6,28.6,30,27,30z"/>
<path class="st1" d="M21.3,4.9H8.7C7.3,4.9,6.2,6,6.2,7.4v1.9h2.5v2H6.2v2.6h2.5v2H6.2v2.6h2.5v2H6.2v1.9c0,1.4,1.1,2.5,2.5,2.5
	h12.7c1.4,0,2.5-1.1,2.5-2.5v-15C23.8,6,22.7,4.9,21.3,4.9z M20.5,20.1L20.5,20.1c-0.3,0-0.5-0.1-0.5-0.4c-0.4-2-2.1-3.5-4.2-3.5
	c-2,0-3.8,1.5-4.2,3.5c-0.1,0.3-0.3,0.5-0.6,0.4s-0.5-0.3-0.4-0.6c0.4-2.1,2-3.6,3.9-4.1c-1.1-0.5-1.8-1.5-1.8-2.8c0-1.7,1.3-3,3-3
	s3,1.3,3,3c0,1.3-0.7,2.3-1.8,2.8c2,0.5,3.5,2.1,3.9,4.1C21,19.8,20.8,20,20.5,20.1L20.5,20.1z M17.8,12.6c0-1.1-0.9-2-2-2
	s-2,0.9-2,2s0.9,2,2,2S17.8,13.8,17.8,12.6z"/>
</svg>
