<?xml version="1.0" encoding="utf-8"?>
<!-- Generator: Adobe Illustrator 21.0.0, SVG Export Plug-In . SVG Version: 6.00 Build 0)  -->
<svg version="1.1" id="图层_1" xmlns="http://www.w3.org/2000/svg" xmlns:xlink="http://www.w3.org/1999/xlink" x="0px" y="0px"
	 viewBox="0 0 30 30" style="enable-background:new 0 0 30 30;" xml:space="preserve">
<style type="text/css">
	.st0{fill:#3098D8;}
	.st1{fill:#FFFFFF;}
</style>
<path class="st0" d="M27,30H3c-1.6,0-3-1.4-3-3V3c0-1.6,1.4-3,3-3h24c1.6,0,3,1.4,3,3v24C30,28.6,28.6,30,27,30z"/>
<path class="st1" d="M22.7,25.7H7.3c-1.7,0-3-1.4-3-3V7.3c0-1.7,1.3-3,3-3h15.5c1.6,0,3,1.3,3,3v15.5C25.7,24.4,24.4,25.7,22.7,25.7
	z"/>
<path class="st0" d="M24.6,3H5.4C4.1,3,3,4.1,3,5.4v19.2C3,25.9,4.1,27,5.4,27h19.2c1.3,0,2.4-1.1,2.4-2.4V5.4C27,4.1,25.9,3,24.6,3
	z M19.4,5.6c0.3-0.4,0.9-0.4,1.3-0.1L22,6.7c0.4,0.3,0.4,0.8,0.1,1.2l-0.7,0.7l-2.6-2.2L19.4,5.6z M18.5,6.7l2.6,2.2l-9.7,11.6
	l-2.6-2.2L18.5,6.7z M8.5,18.7l2.6,2.2l-3,0.9C8.2,21.7,8.5,18.7,8.5,18.7z M23,24.7H7v-1.6h16V24.7z"/>
</svg>
