<?xml version="1.0" encoding="utf-8"?>
<!-- Generator: Adobe Illustrator 21.0.0, SVG Export Plug-In . SVG Version: 6.00 Build 0)  -->
<svg version="1.1" id="图层_1" xmlns="http://www.w3.org/2000/svg" xmlns:xlink="http://www.w3.org/1999/xlink" x="0px" y="0px"
	 viewBox="0 0 30 30" style="enable-background:new 0 0 30 30;" xml:space="preserve">
<style type="text/css">
	.st0{fill:#BA56E8;}
	.st1{fill:#FFFFFF;}
</style>
<path class="st0" d="M27,30H3c-1.6,0-3-1.4-3-3V3c0-1.6,1.4-3,3-3h24c1.6,0,3,1.4,3,3v24C30,28.6,28.6,30,27,30z"/>
<path class="st1" d="M11,6H7.8C6.8,6,6,6.8,6,7.8v14.4c0,1,0.8,1.8,1.8,1.8h14.4c1,0,1.8-0.8,1.8-1.8V7.8c0-1-0.8-1.8-1.8-1.8H19
	v0.2c0,1-0.8,1.8-1.8,1.8h-4.4c-1,0-1.8-0.8-1.8-1.8C11,6.2,11,6,11,6z M19.7,13.6L15,19c-0.1,0.2-0.4,0.3-0.7,0.3
	c-0.2,0-0.5-0.1-0.7-0.2l-2.8-2.4c-0.4-0.3-0.4-0.9-0.1-1.3c0.4-0.4,0.9-0.4,1.3-0.1l2.1,1.8l4.1-4.7c0.4-0.4,0.9-0.4,1.3-0.1
	C20,12.6,20.1,13.2,19.7,13.6L19.7,13.6z M12,5.5C12,4.7,12.7,4,13.5,4h3C17.3,4,18,4.7,18,5.5S17.3,7,16.5,7h-3
	C12.7,7,12,6.3,12,5.5z"/>
</svg>
