<?xml version="1.0" encoding="utf-8"?>
<!-- Generator: Adobe Illustrator 21.0.0, SVG Export Plug-In . SVG Version: 6.00 Build 0)  -->
<svg version="1.1" id="图层_1" xmlns="http://www.w3.org/2000/svg" xmlns:xlink="http://www.w3.org/1999/xlink" x="0px" y="0px"
	 viewBox="0 0 30 30" style="enable-background:new 0 0 30 30;" xml:space="preserve">
<style type="text/css">
	.st0{fill:#F7A23C;}
	.st1{fill:#FFFFFF;}
</style>
<path class="st0" d="M27,30.1H3c-1.6,0-3-1.4-3-3v-24c0-1.6,1.4-3,3-3h24c1.6,0,3,1.4,3,3v24C30,28.8,28.6,30.1,27,30.1z"/>
<g>
	<path class="st1" d="M14.6,12.4c-0.1,0.7-0.5,2-2.1,2.5c0,0,2.9,0.2,5.3-2.5c2.1-0.5,3.7-1.8,3.7-3.3c0-1.9-2.4-3.5-5.3-3.5
		c-2.9,0-5.3,1.5-5.3,3.5C10.9,10.6,12.4,11.9,14.6,12.4z M19.2,8.1c0.6,0,1,0.4,1,1c0,0.6-0.4,1-1,1c-0.6,0-1-0.4-1-1
		C18.2,8.5,18.6,8.1,19.2,8.1z M16.2,8.1c0.6,0,1,0.4,1,1c0,0.6-0.4,1-1,1c-0.6,0-1-0.4-1-1C15.2,8.5,15.6,8.1,16.2,8.1z M13,8.1
		c0.6,0,1,0.4,1,1c0,0.6-0.4,1-1,1s-1-0.4-1-1C12,8.5,12.4,8.1,13,8.1z"/>
	<path class="st1" d="M18.5,15.5c0,1.2,1,2.1,2.2,2.1s2.2-0.9,2.2-2.1s-1-2.1-2.2-2.1S18.5,14.3,18.5,15.5z"/>
	<path class="st1" d="M9.3,18.2c-2.4,0-4.3,2.7-4.3,5.9c0,0.1,0,0.2,0,0.3h8.6c0-0.1,0-0.2,0-0.3C13.6,20.9,11.7,18.2,9.3,18.2z"/>
	<path class="st1" d="M9.3,17.6c1.2,0,2.2-0.9,2.2-2.1s-1-2.1-2.2-2.1s-2.2,0.9-2.2,2.1S8.1,17.6,9.3,17.6z"/>
	<path class="st1" d="M20.7,18.2c-2.4,0-4.3,2.7-4.3,5.9c0,0.1,0,0.2,0,0.3H25c0-0.1,0-0.2,0-0.3C25,20.9,23.1,18.2,20.7,18.2z"/>
</g>
</svg>
