<?xml version="1.0" encoding="utf-8"?>
<!-- Generator: Adobe Illustrator 21.0.0, SVG Export Plug-In . SVG Version: 6.00 Build 0)  -->
<svg version="1.1" id="图层_1" xmlns="http://www.w3.org/2000/svg" xmlns:xlink="http://www.w3.org/1999/xlink" x="0px" y="0px"
	 viewBox="0 0 30 30" style="enable-background:new 0 0 30 30;" xml:space="preserve">
<style type="text/css">
	.st0{fill:#F3725C;}
	.st1{fill:#FFFFFF;}
</style>
<path class="st0" d="M27.2,30.2h-24c-1.6,0-3-1.4-3-3v-24c0-1.6,1.4-3,3-3h24c1.6,0,3,1.4,3,3v24C30.2,28.8,28.9,30.2,27.2,30.2z"/>
<path class="st1" d="M15.1,16.8l-0.6-0.6L14,15.8c-0.1-0.1-0.3-0.3-0.3-0.3c-0.1-0.1-0.3-0.2-0.5-0.3c-0.2-0.1-0.3,0-0.5,0.1
	c-0.1,0.1-0.1,0.3-0.1,0.5c0.1,0.1,0.1,0.3,0.2,0.3l0.3,0.3c0.2,0.2,0.3,0.4,0.5,0.6c0.2,0.3,0.5,0.5,0.7,0.7v0.5H13
	c-0.1,0-0.3,0.1-0.3,0.1c-0.1,0.1-0.1,0.2-0.1,0.3c0,0.1,0.1,0.2,0.1,0.3c0.1,0.1,0.2,0.1,0.3,0.1h1.5v0.8H13
	c-0.1,0-0.3,0.1-0.3,0.1c-0.1,0.1-0.1,0.2-0.1,0.3s0,0.2,0.1,0.3c0.1,0.1,0.2,0.1,0.3,0.1h1.5v0.5c0,0.2,0.1,0.3,0.2,0.4
	s0.3,0.1,0.5,0.1c0.2,0,0.3-0.1,0.4-0.1c0.1-0.1,0.1-0.3,0.1-0.4v-0.5h1.5c0.1,0,0.3,0,0.3-0.1c0.1-0.1,0.1-0.2,0.1-0.3
	c0-0.3-0.2-0.5-0.6-0.5h-1.4v-0.7h1.4c0.2,0,0.3,0,0.5-0.1c0.1-0.1,0.1-0.2,0.1-0.3s-0.1-0.2-0.1-0.3c-0.1-0.1-0.3-0.1-0.5-0.1h-1.4
	v-0.4c0.3-0.3,0.5-0.5,0.7-0.7s0.3-0.3,0.5-0.5s0.3-0.3,0.4-0.4c0.3-0.3,0.4-0.5,0.2-0.8c-0.1-0.1-0.3-0.2-0.4-0.2
	c-0.1,0-0.3,0.1-0.5,0.2c-0.1,0.1-0.2,0.1-0.4,0.3c-0.2,0.1-0.3,0.3-0.5,0.5C15.6,16.4,15.3,16.6,15.1,16.8z M17.4,10.1
	c0.2,0.3,0.4,0.5,0.7,0.8c0.2,0.3,0.5,0.5,0.8,0.9c0.3,0.3,0.7,0.7,1.1,1c0.3,0.3,0.7,0.7,1.1,1.1c0.4,0.4,0.7,0.9,1,1.5
	c0.3,0.5,0.5,1.2,0.6,1.9s0.1,1.5-0.1,2.4c-0.1,0.7-0.4,1.4-0.8,2.1c-0.4,0.7-0.9,1.2-1.5,1.7c-0.7,0.5-1.4,0.9-2.3,1.1
	c-0.9,0.3-1.9,0.4-3,0.4s-2.2-0.1-3-0.5c-0.9-0.3-1.7-0.7-2.3-1.3c-0.6-0.5-1.1-1.1-1.5-1.8c-0.3-0.7-0.6-1.3-0.7-1.9
	c-0.1-0.7-0.1-1.4-0.1-2.1c0.1-0.7,0.3-1.3,0.5-1.9C8.3,15,8.5,14.4,8.9,14c0.4-0.5,0.8-0.9,1.2-1.3c0.4-0.3,0.7-0.7,1-0.9
	c0.3-0.3,0.5-0.6,0.8-0.8c0.3-0.3,0.5-0.5,0.7-0.8C12.5,10.1,17.4,10.1,17.4,10.1z M15,5.8c0,0,0.1,0,0.1-0.1
	c0.1-0.1,0.2-0.1,0.3-0.3C15.6,5.2,15.8,5.1,16,5C16.2,5,16.3,5,16.7,5.1c0.1,0.1,0.3,0.1,0.3,0.2s0.2,0.1,0.3,0.2
	c0.1,0.1,0.2,0.1,0.3,0.2c0.1,0.1,0.2,0.1,0.3,0.1c0.1,0,0.3,0,0.4-0.1c0.1-0.1,0.2-0.1,0.3-0.1c0.1-0.1,0.2-0.1,0.3-0.1
	c0.1,0,0.2,0,0.3,0.1c0.1,0.1,0.3,0.1,0.3,0.3C19.5,6,19.5,6,19.5,6.2c0,0.1-0.1,0.3-0.1,0.3c-0.1,0.1-0.2,0.2-0.3,0.3
	c-0.3,0.2-0.5,0.3-0.7,0.5c-0.1,0.2-0.3,0.4-0.5,0.6c-0.1,0.1-0.1,0.2-0.3,0.3c-0.1,0.1-0.1,0.3-0.3,0.4c-0.1,0.1-0.2,0.3-0.3,0.5
	h-4.5c-0.1-0.2-0.2-0.3-0.3-0.5c-0.1-0.1-0.2-0.3-0.3-0.5c-0.1-0.1-0.2-0.3-0.3-0.4c-0.1-0.2-0.3-0.4-0.5-0.6
	c-0.2-0.2-0.3-0.3-0.5-0.5c-0.2-0.1-0.3-0.3-0.4-0.5c-0.1-0.2,0-0.4,0.2-0.6c0.1-0.1,0.2-0.1,0.3-0.1c0.1,0,0.3,0.1,0.4,0.1
	c0.1,0.1,0.3,0.1,0.4,0.1c0.1,0.1,0.3,0.1,0.4,0c0.2-0.1,0.3-0.1,0.5-0.2c0.1-0.1,0.3-0.3,0.5-0.4c0.2-0.1,0.4-0.1,0.7-0.1
	C14,5,14.2,5,14.3,5.1c0.1,0.1,0.1,0.1,0.2,0.2c0.1,0.1,0.1,0.1,0.2,0.1C14.8,5.7,14.8,5.7,15,5.8L15,5.8z"/>
</svg>
