<?xml version="1.0" encoding="utf-8"?>
<!-- Generator: Adobe Illustrator 21.0.0, SVG Export Plug-In . SVG Version: 6.00 Build 0)  -->
<svg version="1.1" id="图层_1" xmlns="http://www.w3.org/2000/svg" xmlns:xlink="http://www.w3.org/1999/xlink" x="0px" y="0px"
	 viewBox="0 0 30 30" style="enable-background:new 0 0 30 30;" xml:space="preserve">
<style type="text/css">
	.st0{fill:#3098D8;}
	.st1{fill:#FFFFFF;}
</style>
<path class="st0" d="M27,30H3c-1.6,0-3-1.4-3-3V3c0-1.6,1.4-3,3-3h24c1.6,0,3,1.4,3,3v24C30,28.6,28.6,30,27,30z"/>
<path class="st1" d="M22.9,5.9h-2.2V8c0,0.6-0.5,1.1-1.1,1.1S18.5,8.6,18.5,8V5.9h-2.8V8c0,0.6-0.5,1.1-1.1,1.1S13.5,8.6,13.5,8V5.9
	h-2.7V8c0,0.6-0.5,1.1-1.1,1.1S8.6,8.6,8.6,8V5.9H6.9c-0.5,0-1,0.5-1,1V24c0,0.5,0.5,1,1,1H23c0.5,0,1-0.5,1-1V6.9
	C23.9,6.4,23.5,5.9,22.9,5.9z M21.1,21.3H8.6c-0.3,0-0.5-0.3-0.5-0.5s0.3-0.5,0.5-0.5h12.5c0.3,0,0.5,0.3,0.5,0.5
	S21.5,21.3,21.1,21.3z M21.1,17.2H8.6c-0.3,0-0.5-0.3-0.5-0.5s0.3-0.5,0.5-0.5h12.5c0.3,0,0.5,0.3,0.5,0.5S21.5,17.2,21.1,17.2z
	 M21.1,13H8.6c-0.3,0-0.5-0.3-0.5-0.5c0-0.3,0.3-0.5,0.5-0.5h12.5c0.3,0,0.5,0.3,0.5,0.5S21.5,13,21.1,13z M19.6,8.6
	c0.3,0,0.5-0.3,0.5-0.5V5.5c0-0.3-0.3-0.5-0.5-0.5s-0.5,0.3-0.5,0.5V8C19.1,8.3,19.3,8.6,19.6,8.6z M9.7,8.6c0.3,0,0.5-0.3,0.5-0.5
	V5.5C10.2,5.3,10,5,9.7,5S9.2,5.3,9.2,5.5V8C9.2,8.3,9.4,8.6,9.7,8.6z M14.6,8.6c0.3,0,0.5-0.3,0.5-0.5V5.5c0-0.3-0.3-0.5-0.5-0.5
	c-0.3,0-0.5,0.3-0.5,0.5V8C14.1,8.3,14.4,8.6,14.6,8.6z"/>
</svg>
