<?xml version="1.0" encoding="utf-8"?>
<!-- Generator: Adobe Illustrator 21.0.0, SVG Export Plug-In . SVG Version: 6.00 Build 0)  -->
<svg version="1.1" id="图层_1" xmlns="http://www.w3.org/2000/svg" xmlns:xlink="http://www.w3.org/1999/xlink" x="0px" y="0px"
	 viewBox="0 0 40 40" style="enable-background:new 0 0 40 40;" xml:space="preserve">
<style type="text/css">
	.st0{fill:#F5EECB;}
	.st1{fill:#E8363F;}
</style>
<circle class="st0" cx="20" cy="20" r="20"/>
<path class="st1" d="M27.6,16.7h-0.3c-0.1-4-3.3-7.1-7.2-7.1s-7.2,3.2-7.2,7.1c-0.1,0-0.3,0-0.3,0c-3,0-5.4,2.4-5.4,5.4
	s2.4,5.4,5.4,5.4h15.3c3,0,5.4-2.4,5.4-5.4S30.6,16.7,27.6,16.7z M22.8,17.1c0.3-0.3,1-0.8,1-0.8v2.3h-2.4l0.7-0.9
	c0-0.3-3.8-2.1-4.5,2c-0.6,0-0.8,0-1.3,0.1C17.4,14.3,22.7,16.3,22.8,17.1z M17.5,22.9c-0.3,0.3-0.9,0.8-0.9,0.8v-2.4h2.3
	c0,0-0.3,0.4-0.7,0.8c0,0.3,3.8,2.1,4.5-2c0.6,0,0.8,0.1,1.3,0C23,25.7,17.7,23.8,17.5,22.9z"/>
</svg>
