<?xml version="1.0" encoding="utf-8"?>
<!-- Generator: Adobe Illustrator 21.0.0, SVG Export Plug-In . SVG Version: 6.00 Build 0)  -->
<svg version="1.1" id="图层_1" xmlns="http://www.w3.org/2000/svg" xmlns:xlink="http://www.w3.org/1999/xlink" x="0px" y="0px"
	 viewBox="0 0 30 30" style="enable-background:new 0 0 30 30;" xml:space="preserve">
<style type="text/css">
	.st0{fill:#3098D8;}
	.st1{fill:#FFFFFF;}
</style>
<path class="st0" d="M27.1,30h-24c-1.7,0-3-1.4-3-3V3c0-1.6,1.4-3,3-3h24c1.6,0,3,1.4,3,3v24C30.1,28.6,28.7,30,27.1,30z"/>
<g>
	<path class="st1" d="M6.2,12.6c-0.7,0-1.2,0.6-1.2,1.3v10C5,24.5,5.6,25,6.3,25h17.4c0.7,0,1.3-0.5,1.3-1.3v-10
		c0-0.7-0.5-1.2-1.2-1.3l-0.5,0.3l-7.6,6.2L15,19.7l-0.7-0.6l-7.6-6.2C6.7,12.9,6.2,12.6,6.2,12.6z"/>
	<path class="st1" d="M7.6,6.3C7.6,5.6,8.2,5,8.9,5h12.4c0.7,0,1.3,0.5,1.3,1.3v5.6L15,18.1l-7.4-6.2V6.3z M10.5,8.8H20V7.5H10v1.3
		H10.5z M10.5,11.3H20V10H10v1.3H10.5z"/>
</g>
</svg>
