<?xml version="1.0" encoding="utf-8"?>
<!-- Generator: Adobe Illustrator 21.0.0, SVG Export Plug-In . SVG Version: 6.00 Build 0)  -->
<svg version="1.1" id="图层_1" xmlns="http://www.w3.org/2000/svg" xmlns:xlink="http://www.w3.org/1999/xlink" x="0px" y="0px"
	 viewBox="0 0 28 28" style="enable-background:new 0 0 28 28;" xml:space="preserve">
<style type="text/css">
	.st0{fill:#50596F;}
</style>
<g>
	<path class="st0" d="M14.1,3c0.3,0,0.5,0.1,0.7,0.3l9,9.9c0.2,0.2,0.3,0.5,0.3,0.8c0,0.3-0.1,0.6-0.3,0.8c-0.2,0.2-0.5,0.3-0.8,0.3
		c-0.3,0-0.5-0.1-0.7-0.3L14,5.7l-8.3,9.1c-0.2,0.2-0.4,0.3-0.7,0.3c-0.3,0-0.6-0.1-0.8-0.3c-0.4-0.4-0.4-1.1,0-1.6l9-9.8
		C13.4,3.1,13.6,3,13.9,3H14.1z"/>
	<path class="st0" d="M14.1,12.9c0.3,0,0.5,0.1,0.7,0.3l9,9.9c0.4,0.4,0.4,1.1,0,1.6C23.6,24.9,23.3,25,23,25
		c-0.3,0-0.5-0.1-0.7-0.3L14,15.6l-8.3,9.1C5.5,24.9,5.2,25,4.9,25c-0.3,0-0.5-0.1-0.8-0.3c-0.4-0.4-0.4-1.1,0-1.6l9-9.8
		c0.2-0.2,0.5-0.3,0.7-0.3H14.1z"/>
</g>
</svg>
