<?xml version="1.0" encoding="utf-8"?>
<!-- Generator: Adobe Illustrator 21.0.0, SVG Export Plug-In . SVG Version: 6.00 Build 0)  -->
<svg version="1.1" id="图层_1" xmlns="http://www.w3.org/2000/svg" xmlns:xlink="http://www.w3.org/1999/xlink" x="0px" y="0px"
	 viewBox="0 0 28 28" style="enable-background:new 0 0 28 28;" xml:space="preserve">
<style type="text/css">
	.st0{fill:#50596F;}
</style>
<g>
	<path class="st0" d="M13.9,25c-0.3,0-0.5-0.1-0.7-0.3l-9-9.9C4,14.6,3.9,14.3,3.9,14c0-0.3,0.1-0.6,0.3-0.8
		c0.2-0.2,0.5-0.3,0.8-0.3c0.3,0,0.5,0.1,0.7,0.3l8.3,9.1l8.3-9.1c0.2-0.2,0.4-0.3,0.7-0.3c0.3,0,0.6,0.1,0.8,0.3
		c0.4,0.4,0.4,1.1,0,1.6l-9,9.8c-0.2,0.2-0.5,0.3-0.7,0.3H13.9z"/>
	<path class="st0" d="M13.9,15.1c-0.3,0-0.5-0.1-0.7-0.3l-9-9.9c-0.4-0.4-0.4-1.1,0-1.6C4.4,3.1,4.7,3,5,3c0.3,0,0.5,0.1,0.7,0.3
		l8.3,9.1l8.3-9.1C22.5,3.1,22.8,3,23.1,3c0.3,0,0.5,0.1,0.8,0.3c0.4,0.4,0.4,1.1,0,1.6l-9,9.8c-0.2,0.2-0.5,0.3-0.7,0.3H13.9z"/>
</g>
</svg>
