<?xml version="1.0" encoding="utf-8"?>
<!-- Generator: Adobe Illustrator 21.0.0, SVG Export Plug-In . SVG Version: 6.00 Build 0)  -->
<svg version="1.1" id="图层_1" xmlns="http://www.w3.org/2000/svg" xmlns:xlink="http://www.w3.org/1999/xlink" x="0px" y="0px"
	 viewBox="0 0 28 28" style="enable-background:new 0 0 28 28;" xml:space="preserve">
<style type="text/css">
	.st0{fill:#0092DC;}
	.st1{fill:#FFFFFF;}
</style>
<g>
	<g>
		<path class="st0" d="M3.7,21.7c-5-5-5-13,0-18c5-5,13-5,18,0c5,5,5,13,0,18C16.7,26.7,8.7,26.7,3.7,21.7L3.7,21.7z"/>
	</g>
	<g>
		<path class="st1" d="M12.7,23.4c-2.9,0-5.6-1.1-7.6-3.1c-2-2-3.1-4.7-3.1-7.6c0-2.9,1.1-5.6,3.1-7.6c2-2,4.7-3.1,7.6-3.1
			c2.9,0,5.6,1.1,7.6,3.1h0c0,0,0,0,0,0c2,2,3.1,4.7,3.1,7.6c0,2.9-1.1,5.6-3.1,7.6C18.3,22.3,15.6,23.4,12.7,23.4z M12.7,3.8
			c-2.4,0-4.6,0.9-6.3,2.6s-2.6,3.9-2.6,6.3c0,2.4,0.9,4.6,2.6,6.3c3.5,3.5,9.2,3.5,12.6,0c3.5-3.5,3.5-9.2,0-12.6l0,0
			C17.4,4.7,15.1,3.8,12.7,3.8z"/>
	</g>
	<g>
		<path class="st0" d="M27.5,27.5c-0.7,0.7-1.8,0.7-2.5,0L22.6,25c-0.7-0.7-0.7-1.8,0-2.5c0.7-0.7,1.8-0.7,2.5,0l2.5,2.5
			C28.2,25.7,28.2,26.8,27.5,27.5z"/>
	</g>
</g>
</svg>
