<?xml version="1.0" encoding="utf-8"?>
<!-- Generator: Adobe Illustrator 21.0.0, SVG Export Plug-In . SVG Version: 6.00 Build 0)  -->
<svg version="1.1" id="图层_1" xmlns="http://www.w3.org/2000/svg" xmlns:xlink="http://www.w3.org/1999/xlink" x="0px" y="0px"
	 viewBox="0 0 28 28" style="enable-background:new 0 0 28 28;" xml:space="preserve">
<style type="text/css">
	.st0{fill:#50596F;}
</style>
<g>
	<path class="st0" d="M3.7,21.7c-5-5-5-13,0-18c5-5,13-5,18,0c5,5,5,13,0,18C16.7,26.7,8.7,26.7,3.7,21.7L3.7,21.7z M19.9,5.6
		c-4-4-10.4-4-14.3,0s-4,10.4,0,14.3c4,4,10.4,4,14.3,0v0C23.8,15.9,23.8,9.5,19.9,5.6C19.9,5.6,19.9,5.6,19.9,5.6z"/>
	<path class="st0" d="M27.5,27.5c-0.7,0.7-1.8,0.7-2.5,0L22.6,25c-0.7-0.7-0.7-1.8,0-2.5c0.7-0.7,1.8-0.7,2.5,0l2.5,2.5
		C28.2,25.7,28.2,26.8,27.5,27.5z"/>
</g>
</svg>
