<?xml version="1.0" encoding="utf-8"?>
<!-- Generator: Adobe Illustrator 21.0.0, SVG Export Plug-In . SVG Version: 6.00 Build 0)  -->
<svg version="1.1" id="图层_1" xmlns="http://www.w3.org/2000/svg" xmlns:xlink="http://www.w3.org/1999/xlink" x="0px" y="0px"
	 viewBox="0 0 28 28" style="enable-background:new 0 0 28 28;" xml:space="preserve">
<style type="text/css">
	.st0{fill:#0092DC;}
</style>
<g>
	<g>
		<path class="st0" d="M10.4,13H3.9c-1.5,0-2.7-1.2-2.7-2.7V3.9c0-1.5,1.2-2.7,2.7-2.7h6.5c1.5,0,2.7,1.2,2.7,2.7v6.5
			C13,11.8,11.8,13,10.4,13z M3.9,3C3.4,3,3,3.4,3,3.9v6.5c0,0.5,0.4,0.9,0.9,0.9h6.5c0.5,0,0.9-0.4,0.9-0.9V3.9
			c0-0.5-0.4-0.9-0.9-0.9H3.9z"/>
	</g>
	<g>
		<path class="st0" d="M22.9,12.1h-4c-1.7,0-3-1.4-3-3v-4c0-1.7,1.3-3,3-3h4c1.6,0,3,1.3,3,3v4C25.9,10.8,24.5,12.1,22.9,12.1z"/>
		<path class="st0" d="M24.1,13h-6.5c-1.5,0-2.7-1.2-2.7-2.7V3.9c0-1.5,1.2-2.7,2.7-2.7h6.5c1.5,0,2.7,1.2,2.7,2.7v6.5
			C26.8,11.8,25.6,13,24.1,13z M17.6,3c-0.5,0-0.9,0.4-0.9,0.9v6.5c0,0.5,0.4,0.9,0.9,0.9h6.5c0.5,0,0.9-0.4,0.9-0.9V3.9
			C25,3.4,24.6,3,24.1,3H17.6z"/>
	</g>
	<g>
		<path class="st0" d="M9.1,25.9h-4c-1.7,0-3-1.3-3-3v-4c0-1.6,1.3-3,3-3h4c1.6,0,3,1.4,3,3v4C12.1,24.6,10.8,25.9,9.1,25.9z"/>
		<path class="st0" d="M10.4,26.8H3.9c-1.5,0-2.7-1.2-2.7-2.7v-6.5c0-1.5,1.2-2.7,2.7-2.7h6.5c1.5,0,2.7,1.2,2.7,2.7v6.5
			C13,25.6,11.8,26.8,10.4,26.8z M3.9,16.8c-0.5,0-0.9,0.4-0.9,0.9v6.5C3,24.6,3.4,25,3.9,25h6.5c0.5,0,0.9-0.4,0.9-0.9v-6.5
			c0-0.5-0.4-0.9-0.9-0.9H3.9z"/>
	</g>
	<g>
		<path class="st0" d="M22.9,25.9h-4c-1.7,0-3-1.3-3-3v-4c0-1.6,1.3-3,3-3h4c1.6,0,3,1.4,3,3v4C25.9,24.6,24.5,25.9,22.9,25.9z"/>
		<path class="st0" d="M24.1,26.8h-6.5c-1.5,0-2.7-1.2-2.7-2.7v-6.5c0-1.5,1.2-2.7,2.7-2.7h6.5c1.5,0,2.7,1.2,2.7,2.7v6.5
			C26.8,25.6,25.6,26.8,24.1,26.8z M17.6,16.8c-0.5,0-0.9,0.4-0.9,0.9v6.5c0,0.5,0.4,0.9,0.9,0.9h6.5c0.5,0,0.9-0.4,0.9-0.9v-6.5
			c0-0.5-0.4-0.9-0.9-0.9H17.6z"/>
	</g>
</g>
</svg>
