<?xml version="1.0" standalone="no"?><!DOCTYPE svg PUBLIC "-//W3C//DTD SVG 1.1//EN" "http://www.w3.org/Graphics/SVG/1.1/DTD/svg11.dtd"><svg t="1502104804819" class="icon" style="" viewBox="0 0 1024 1024" version="1.1" xmlns="http://www.w3.org/2000/svg" p-id="2315" xmlns:xlink="http://www.w3.org/1999/xlink" width="200" height="200"><defs><style type="text/css"></style></defs><path d="M705.674353 743.712C705.674353 764.321334 688.927059 781.064 668.35953 781.064L553.443765 781.064 553.443765 408.278666 495.561412 408.278666 495.561412 781.064 363.126588 781.064C342.559059 781.064 325.811765 764.321334 325.811765 743.712L325.811765 405.108 267.929412 405.108 267.929412 743.712C267.929412 796.298666 310.646588 839.064 363.126588 839.064L668.35953 839.064C720.878118 839.064 763.556706 796.298666 763.556706 743.712L763.556706 402.865334 705.674353 402.865334 705.674353 743.712" p-id="2316"></path><path d="M573.625412 279.634666 573.625412 194.568 457.860706 194.568 457.860706 279.634666 210.780235 279.634666 210.780235 337.634666 820.705882 337.634666 820.705882 279.634666 573.625412 279.634666" p-id="2317"></path></svg>