<?xml version="1.0" standalone="no"?><!DOCTYPE svg PUBLIC "-//W3C//DTD SVG 1.1//EN" "http://www.w3.org/Graphics/SVG/1.1/DTD/svg11.dtd"><svg t="1506320323634" class="icon" style="" viewBox="0 0 1024 1024" version="1.1" xmlns="http://www.w3.org/2000/svg" p-id="3110" xmlns:xlink="http://www.w3.org/1999/xlink" width="200" height="200"><defs><style type="text/css"></style></defs><path d="M511.914667 511.061333L180.394667 146.090667a37.973333 37.973333 0 0 1-9.728-25.6 37.546667 37.546667 0 0 1 9.557333-25.6 30.72 30.72 0 0 1 46.336 0l285.354667 313.941333 285.354666-313.941333a30.72 30.72 0 0 1 46.421334 0 38.741333 38.741333 0 0 1 0 51.2L511.914667 511.061333z m-285.354667 10.581334l285.354667 313.856 285.354666-313.856a30.72 30.72 0 0 1 46.421334 0 38.485333 38.485333 0 0 1 0 51.029333l-331.776 365.056-331.52-365.056A37.376 37.376 0 0 1 170.666667 547.157333c0-9.216 3.072-18.517333 9.557333-25.514666a30.549333 30.549333 0 0 1 46.336 0z" fill="#cdcdcd" p-id="3111"></path></svg>