<?xml version="1.0" standalone="no"?><!DOCTYPE svg PUBLIC "-//W3C//DTD SVG 1.1//EN" "http://www.w3.org/Graphics/SVG/1.1/DTD/svg11.dtd"><svg t="1509332120426" class="icon" style="" viewBox="0 0 1024 1024" version="1.1" xmlns="http://www.w3.org/2000/svg" p-id="1180" xmlns:xlink="http://www.w3.org/1999/xlink" width="200" height="200"><defs><style type="text/css"></style></defs><path d="M540.444444 748.088889C540.444444 748.088889 540.444444 745.244444 540.444444 748.088889 546.133333 745.244444 548.977778 742.4 551.822222 739.555556L861.866667 369.777778C881.777778 347.022222 878.933333 310.044444 853.333333 290.133333L745.244444 199.111111C733.866667 190.577778 719.644444 184.888889 702.577778 184.888889 688.355556 184.888889 674.133333 193.422222 662.755556 204.8L352.711111 574.577778C349.866667 577.422222 349.866667 580.266667 347.022222 583.111111L347.022222 588.8 321.422222 773.688889C321.422222 776.533333 321.422222 779.377778 321.422222 782.222222L176.355556 782.222222C159.288889 782.222222 147.911111 793.6 147.911111 810.666667 147.911111 827.733333 159.288889 839.111111 176.355556 839.111111L802.133333 839.111111C819.2 839.111111 830.577778 827.733333 830.577778 810.666667 830.577778 793.6 819.2 782.222222 802.133333 782.222222L426.666667 782.222222 540.444444 748.088889C537.6 748.088889 537.6 748.088889 540.444444 748.088889ZM708.266667 241.777778 816.355556 332.8 523.377778 682.666667 415.288889 591.644444 708.266667 241.777778Z" p-id="1181" fill="#bfbfbf"></path></svg>