<?xml version="1.0" encoding="utf-8"?>
<!-- Generator: Adobe Illustrator 21.0.0, SVG Export Plug-In . SVG Version: 6.00 Build 0)  -->
<svg version="1.1" id="图层_1" xmlns="http://www.w3.org/2000/svg" xmlns:xlink="http://www.w3.org/1999/xlink" x="0px" y="0px"
	 viewBox="0 0 24 24" style="enable-background:new 0 0 24 24;" xml:space="preserve">
<style type="text/css">
	.st0{fill:#C8392C;}
</style>
<g>
	<path class="st0" d="M12,1c0.5,0,1.1,0.2,1.4,0.6l0,0.1l0,0.1c3,3.1,7.4,7.8,8.4,8.9v0.9c0,0.7-0.4,1.4-1.2,1.4h-0.6h-1v1v7.8
		c0,0.6-0.6,1.3-1.5,1.3c-0.9,0-1.5-0.6-1.5-1.3v-7.8v-1h-1H8.8h-1v1v7.8c0,0.6-0.6,1.3-1.5,1.3c-0.9,0-1.5-0.6-1.6-1.3v-7.8v-1h-1
		H3.1c-0.6,0-1.5-0.7-1.5-1.5l0-0.1c0,0,0.1-0.1,0.2-0.2C1.8,11,1.9,10.9,2,10.8l0,0c0.5-0.6,5.4-5.7,8.6-9.1l0-0.1l0-0.1
		C11,1.2,11.6,1,12,1 M21.7,1.2l-0.1,2.2l-1-1.1l-1.1-1.1H21.7 M12,0c-0.6,0-1.6,0.3-2.1,1c0,0-8.7,9.1-8.7,9.2
		c-0.3,0.4-0.6,0.6-0.6,1.1v0.1c0,1.3,1.3,2.5,2.5,2.5h0.6v7.8C3.8,23,4.9,24,6.3,24s2.5-1.1,2.5-2.3v-7.8h6.3v7.8
		c0,1.3,1.1,2.3,2.5,2.3s2.5-1.1,2.5-2.3v-7.8h0.6c1.3,0,2.2-1.1,2.2-2.4c0.3,0,0.3-0.8,0-1.3C22.8,10,14.2,1,14.2,1
		C13.7,0.3,12.7,0,12,0L12,0z M22.1,0.2h-3.4h-0.1h-0.1c-0.1,0-0.2,0.1-0.3,0.1C18,0.6,18,1,18.2,1.2L19.9,3l1.7,1.8
		C21.8,5,21.9,5,22.1,5s0.3-0.1,0.4-0.2c0.1-0.1,0.1-0.1,0.1-0.3V4.4l0.1-3.2C22.8,0.2,22.1,0.2,22.1,0.2L22.1,0.2z"/>
</g>
</svg>
