<?xml version="1.0" standalone="no"?><!DOCTYPE svg PUBLIC "-//W3C//DTD SVG 1.1//EN" "http://www.w3.org/Graphics/SVG/1.1/DTD/svg11.dtd"><svg t="1514187003851" class="icon" style="" viewBox="0 0 1024 1024" version="1.1" xmlns="http://www.w3.org/2000/svg" p-id="1881" xmlns:xlink="http://www.w3.org/1999/xlink" width="200" height="200"><defs><style type="text/css"></style></defs><path d="M659.496286 658.167011c-48.974411 48.972365-116.098181 68.730361-179.806156 59.207473l-24.068162 13.900591c75.16491 18.662035 158.055782-1.416256 216.805838-60.167334 28.380374-28.379351 47.749514-62.425771 58.173934-98.460476l-24.003693 13.837147c-10.357905 26.187429-26.057469 50.638307-47.101761 71.682599z m-89.194439 106.053408l-18.730596 1.99647 9.398044 15.829524-4.825912 18.4717 18.4717-4.825912 15.829524 9.393951 1.995447-18.726504 14.607696-12.54778-17.181311-6.758938-6.755868-17.185404-12.808724 14.352893z m208.247928-151.871943l18.084891-3.279697-10.812254-15.57472 2.76702-19.113313-17.443277 6.113231-16.408715-8.55484 0.064468 19.371187-12.999058 13.769608 17.442254 5.857404 8.364505 17.120936 10.940166-15.709796z m-81.859379 118.150933l18.212804 2.382257-5.596462-18.082844 8.42488-17.311271-18.402115 0.51677-12.998036-13.126972-5.791913 18.403139-16.473183 9.267061 14.800078 10.809183 2.832511 18.795065 14.993483-11.650341h-0.00307l0.001023-0.002047z m-225.751581 63.581084l18.919909-3.475147-11.325953-14.543228 2.764973-18.208711-18.21178 6.109138-17.24578-7.848758 0.064469 18.340717-13.514805 13.387915 18.34174 5.213745 8.882298 16.087397 11.324929-15.056928v-0.00614z m-243.321747 47.816029L940.266947 430.426123c17.440208-10.105149 23.486924-32.499182 13.387915-49.941436L843.931878 190.447517c-10.105149-17.440208-32.497135-23.487947-49.942459-13.386892L81.344656 588.537164c-17.440208 10.105149-23.48897 32.494065-13.386891 49.936319l109.72196 190.037171c10.039657 17.502629 32.43676 23.553439 49.937343 13.385868z m-38.73828-30.504758l-100.584859-174.201507c-7.529487-13.065574-3.022847-29.927613 10.041703-37.45403l696.814216-402.211525c13.06455-7.52744 29.92659-3.021823 37.453007 10.042727l100.58793 174.203554c7.526417 13.06455 3.022847 29.925566-10.040681 37.455054l-696.880731 402.271899c-12.999059 7.591909-29.730115 3.085268-37.388538-10.105148l-0.002047-0.001024z m554.723034-69.118193C635.876332 850.006224 472.095151 867.444385 346.157881 794.658661l-18.149359 10.558474c133.983527 82.884732 312.178999 66.219167 428.405094-50.000788 70.527286-70.533426 104.311741-163.77811 101.67468-256.125355l-18.079774 10.485819c0 84.174098-32.117488 168.411641-96.4067 232.69676z m-428.52789-309.857117c10.235109-26.061562 25.872251-50.583049 46.979987-71.690786 48.970318-48.970318 116.091018-68.728314 179.804109-59.204403l24.067139-13.899569c-75.166957-18.663058-158.054759 1.416256-216.807885 60.166312-28.379351 28.381397-47.752584 62.423725-58.174957 98.462522-0.001023 0.002047 24.131607-13.834076 24.131607-13.834076z m111.847367-165.514661l18.664082-1.930979-9.395997-15.832594 4.700045-18.340717-18.34174 4.699022-15.833617-9.394974-1.928932 18.662035-14.480806 12.549828 17.183357 6.754844 6.756891 17.182334 12.678764-14.348799h-0.002047c0 0.001023 0 0 0 0z m-119.118981 39.44743l-18.149359-2.446725 5.599532 17.955954-8.366552 17.248849 18.405186-0.385786 12.935613 13.06148 5.662977-18.277272 16.343223-9.137101-14.801101-10.81123-2.829441-18.790972-14.800078 11.582803z m244.671489-82.115206l-19.049868 2.058892 10.29753 15.313778-4.053316 17.956977 18.534122-4.764514 16.473183 9.011235 1.161453-18.276249 14.283307-12.355399-17.760502-6.437619-7.6574-16.666589-12.228509 14.159488zM278.005688 276.68153c107.72856-107.72549 271.50667-125.165698 397.444964-52.383044l18.148336-10.555404c-133.983527-82.884732-312.178999-66.216097-428.399977 50.005904-70.53138 70.529333-104.316857 163.775041-101.678774 256.127402l18.082844-10.491959c-0.064468-84.111676 32.113395-168.412664 96.402607-232.702899z m-46.012963 140.997268l-18.019399 3.218298 10.746762 15.380292-2.703575 18.919908 17.375739-6.050809 16.410762 8.558933-0.192382-19.11229 12.870122-13.644765-17.374716-5.789866-8.494465-16.992c0.001023 0.00307-10.618848 15.512299-10.618848 15.512299z" p-id="1882" fill="#dd062c"></path><path d="M352.932168 571.849086l60.989049-35.388998c-4.080945-12.050454-9.766434-24.835641-17.054421-38.352493l-53.054333 30.78412-7.042393-12.135388 126.33329-73.305563 7.042393 12.135389-60.211337 34.93772c6.976902 13.697977 12.611226 26.51284 16.899902 38.44152l76.08077-44.146452 7.04137 12.135388-78.724993 45.680389c12.459776 39.632649 6.551206 79.386048-17.727757 119.262244-4.328585-2.203178-9.266038-4.259-14.81031-6.170537 21.940708-33.389458 28.430516-68.558445 19.4684-105.506962l-58.187237 33.763988-7.042393-12.134365z m93.201705-22.88522l12.600993-7.312546 23.743773 40.917922c4.754281 8.193613 10.916631 10.094916 18.489097 5.700839l21.314445-12.368702c7.052626-4.091178 9.271154-9.470699 6.653537-16.131399-2.601244-6.392594-6.432503-14.428617-11.493776-24.110117 4.783956-0.832971 10.012028-1.857301 15.687284-3.070942 4.920056 10.871605 8.470929 19.139919 10.650571 24.805965 4.669346 11.154038 0.315178 20.614503-13.065573 28.378328l-26.916023 15.617699c-13.58746 7.884574-24.534789 4.669346-32.839943-9.643638l-24.824385-42.783409zM491.133763 444.447465l78.413908-45.500287 6.138814 10.579963-78.413908 45.500286-6.138814-10.579962z m15.972787-37.343513l7.421016-11.583827a394.335137 394.335137 0 0 1 23.559579 13.364379l-7.641027 11.920494c-8.067746-5.301749-15.84692-9.867742-23.339568-13.701046z m15.779381 41.171701l13.969153 0.420579a803.814182 803.814182 0 0 1-5.955642 50.66389c-3.857864-0.672312-8.300037-1.282203-13.331633-1.830695 2.319835-13.682627 4.092201-30.101575 5.318122-49.253774z m15.647375 48.111764l4.157694-12.187576a1268.916059 1268.916059 0 0 1 32.383547 8.141424c0.199545-10.166547-0.49528-20.682042-2.083451-31.545461l14.632255-0.588401c1.332345 12.329816 1.696642 24.249287 1.095961 35.758412a1472.742281 1472.742281 0 0 1 35.040051 10.030448l-5.278213 14.916734a2340.076148 2340.076148 0 0 0-31.058367-10.157337c-2.690272 20.693298-8.697079 40.090067-18.020422 58.18519-3.597945-1.656733-8.27957-3.51608-14.048971-5.573949 10.138918-17.530258 16.391319-36.443004 18.755156-56.740282-12.732999-3.90903-24.592095-7.321756-35.57524-10.239202z m16.518209-66.152652c10.610662 2.993171 23.139 7.023974 37.586037 12.088316l-4.666277 13.105482c-11.06501-4.253884-23.546276-8.797363-37.440727-13.629415l4.520967-11.564383z m18.49012-68.127634l13.464663-5.109367c3.650133 11.1919 6.427386 22.127973 8.327666 32.810266l50.02023-29.024034 6.139837 10.57894-10.735505 6.228865c14.855336 31.934317 22.072715 59.427484 21.653159 82.476433 15.522532 6.798846 32.337499 10.211573 50.447972 10.241248-0.671289 6.488785-1.093914 12.211113-1.2689 17.164938-18.362206-1.061169-35.259038-4.912893-50.690495-11.555173-2.62171 17.464767-8.302083 34.972513-17.043165 52.523237-4.028757-1.683339-8.881274-3.235694-14.555507-4.65502 9.413394-19.258623 15.230889-37.606503 17.45044-55.04671-17.905812-10.54517-33.962509-25.316595-48.175209-44.315298 0.010233 5.749958-0.270153 11.423167-0.835018 17.018605-3.983731-1.848091-8.502651-3.66139-13.55676-5.442966 2.278903-23.786753-1.26583-48.416709-10.643408-73.893964z m54.92596 22.616091l-30.338982 17.604959c14.849196 21.887496 31.317263 38.498826 49.405223 49.840129-0.667196-21.10262-7.023974-43.583634-19.066241-67.445088z" p-id="1883" fill="#dd062c"></path></svg>