<?xml version="1.0" standalone="no"?><!DOCTYPE svg PUBLIC "-//W3C//DTD SVG 1.1//EN" "http://www.w3.org/Graphics/SVG/1.1/DTD/svg11.dtd"><svg t="1514339403956" class="icon" style="" viewBox="0 0 1024 1024" version="1.1" xmlns="http://www.w3.org/2000/svg" p-id="2408" xmlns:xlink="http://www.w3.org/1999/xlink" width="200" height="200"><defs><style type="text/css"></style></defs><path d="M167.733189 486.810295l332.179518-332.180542c5.042853-5.067412 15.078417-5.067412 20.144806 0l332.154959 332.179518c5.04183 5.018294 10.009981 5.018294 15.099906 5.018294 5.043876 0 10.084683 0 15.127536-5.018294 10.0591-10.083659 10.0591-20.167319 0-30.201859L545.243125 124.425847c-20.144806-20.1182-60.430324-20.1182-80.574107 0l-332.206124 332.181565c-4.991688 5.01727-4.991688 20.1182 0 30.201859 5.042853 10.084683 25.136493 10.084683 35.270295 0z m-35.244712 151.012365h85.565794v271.774777h40.287565V637.82266h85.540212v-30.201859h-211.394594v30.201859z m367.400694-35.219129c-45.280276 0-80.526011 15.101953-105.660458 45.254693-25.185612 30.30112-40.311101 70.538543-40.311101 115.743094 0 45.354977 15.125489 80.574107 40.311101 110.77699 25.13547 25.185612 60.380182 40.287565 100.692307 40.287565 45.279253 0 80.473823-15.101953 105.659434-45.304836 25.185612-30.250978 40.312124-70.538543 40.312125-115.842355 0-45.254693-15.126512-80.474846-40.312125-110.628609-20.093641-30.300097-55.337329-40.287565-100.691283-40.287566z m75.555813 246.590188c-20.143783 20.168342-45.378513 30.201859-75.555813 30.201859-30.154787 0-55.340399-10.034541-75.507718-35.220153-20.094664-20.169365-30.153764-50.321082-30.153763-90.657766 0-35.121915 10.0591-65.373916 30.153763-90.511433 20.167319-20.117177 45.352931-35.219129 75.507718-35.21913 30.1773 0 55.412031 9.985422 75.555813 30.202883 20.1182 20.167319 25.134447 50.271964 25.134447 90.557482 0.001023 50.275034-10.058077 75.460646-25.134447 100.646258z m286.802029-221.404576c-20.094664-15.199167-45.280276-25.185612-75.505672-25.185612h-85.46858v301.92854h40.238446V788.787954h40.260959c30.202882 0 60.429301-10.033517 80.474847-25.184589 20.192901-20.1182 30.27656-40.2364 30.27656-70.39221 0-25.183566-10.083659-50.320059-30.27656-65.420989z m-30.1773 115.743094c-10.0591 10.036587-30.202882 15.052834-55.340399 15.052834h-35.218107v-120.811529h40.260959c45.327348 0 70.464865 20.168342 70.464865 60.405764 0 20.167319-10.084683 35.269271-20.168342 45.352931z" fill="#dd062c" p-id="2409"></path></svg>