<?xml version="1.0" encoding="utf-8"?>
<!-- Generator: Adobe Illustrator 21.0.0, SVG Export Plug-In . SVG Version: 6.00 Build 0)  -->
<svg version="1.1" id="图层_1" xmlns="http://www.w3.org/2000/svg" xmlns:xlink="http://www.w3.org/1999/xlink" x="0px" y="0px"
	 viewBox="0 0 40 40" style="enable-background:new 0 0 40 40;" xml:space="preserve">
<style type="text/css">
	.st0{fill:#666666;}
</style>
<g>
	<path class="st0" d="M29.7,37.5c-9.6,5.4-21.8,1.9-27.2-7.7S0.6,7.9,10.3,2.5c9.6-5.4,21.8-1.9,27.2,7.7c0.3,0.5,0.1,1-0.4,1.3
		c-0.5,0.3-1,0.1-1.3-0.4c-4.9-8.7-15.9-11.8-24.6-7s-11.8,15.9-7,24.6c4.9,8.7,15.9,11.8,24.6,7c6.1-3.4,9.7-10.1,9.2-17.1
		c0-0.5,0.4-1,0.9-1c0.5,0,1,0.4,1,0.9C40.5,26.3,36.5,33.7,29.7,37.5z"/>
</g>
<path class="st0" d="M20,20.7L20,20.7c-0.6,0-1-0.4-1-1v-10c0-0.5,0.4-1,1-1h0c0.5,0,1,0.4,1,1v10C21,20.3,20.5,20.7,20,20.7z"/>
<path class="st0" d="M19,19.7L19,19.7c0-0.6,0.4-1,1-1h10c0.5,0,1,0.4,1,1v0c0,0.6-0.5,1-1,1H20C19.4,20.7,19,20.3,19,19.7z"/>
</svg>
