<?xml version="1.0" encoding="utf-8"?>
<!-- Generator: Adobe Illustrator 21.0.0, SVG Export Plug-In . SVG Version: 6.00 Build 0)  -->
<svg version="1.1" id="图层_1" xmlns="http://www.w3.org/2000/svg" xmlns:xlink="http://www.w3.org/1999/xlink" x="0px" y="0px"
	 viewBox="0 0 40 40" style="enable-background:new 0 0 40 40;" xml:space="preserve">
<style type="text/css">
	.st0{fill:#666666;}
</style>
<g>
	<path class="st0" d="M37.5,10.3c5.4,9.6,1.9,21.8-7.7,27.2S7.9,39.4,2.5,29.7c-5.4-9.6-1.9-21.8,7.7-27.2c0.5-0.3,1-0.1,1.3,0.4
		s0.1,1-0.4,1.3c-8.7,4.9-11.8,15.9-7,24.6s15.9,11.8,24.6,7c8.7-4.9,11.8-15.9,7-24.6c-3.4-6.1-10.1-9.7-17.1-9.2
		c-0.5,0-1-0.4-1-0.9c0-0.5,0.4-1,0.9-1C26.3-0.5,33.7,3.5,37.5,10.3z"/>
</g>
<path class="st0" d="M20,24.7L20,24.7c-0.6,0-1-0.4-1-1V10.9c0-0.6,0.4-1,1-1h0c0.5,0,1,0.4,1,1v12.8C21,24.3,20.5,24.7,20,24.7z"/>
<path class="st0" d="M13.4,14.8L13.4,14.8c0.6,0,1,0.4,1,1v7.9c0,0.5-0.4,1-1,1h0c-0.5,0-1-0.4-1-1v-7.9
	C12.4,15.3,12.8,14.8,13.4,14.8z"/>
<path class="st0" d="M26.6,13.3L26.6,13.3c0.6,0,1,0.4,1,1v9.4c0,0.5-0.5,1-1,1h0c-0.5,0-1-0.4-1-1v-9.4
	C25.6,13.7,26.1,13.3,26.6,13.3z"/>
<path class="st0" d="M9,26.7L9,26.7c0-0.6,0.4-1,1-1h20c0.5,0,1,0.4,1,1v0c0,0.6-0.4,1-1,1H10C9.4,27.7,9,27.3,9,26.7z"/>
</svg>
