<?xml version="1.0" encoding="utf-8"?>
<!-- Generator: Adobe Illustrator 21.0.0, SVG Export Plug-In . SVG Version: 6.00 Build 0)  -->
<svg version="1.1" id="图层_1" xmlns="http://www.w3.org/2000/svg" xmlns:xlink="http://www.w3.org/1999/xlink" x="0px" y="0px"
	 viewBox="0 0 40 40" style="enable-background:new 0 0 40 40;" xml:space="preserve">
<style type="text/css">
	.st0{fill:#666666;}
</style>
<g>
	<g>
		<path class="st0" d="M20,24c-6.6,0-12-5.4-12-12S13.4,0,20,0s12,5.4,12,12S26.6,24,20,24z M20,2.2c-5.4,0-9.8,4.4-9.8,9.8
			s4.4,9.8,9.8,9.8c5.4,0,9.8-4.4,9.8-9.8S25.4,2.2,20,2.2z"/>
	</g>
</g>
<g>
	<path class="st0" d="M38,40H2v-1c0-9.7,7.7-17,18-17c0.6,0,1,0.4,1,1s-0.4,1-1,1c-8.8,0-15.5,6-16,14H36c-0.3-4.7-2.8-8.6-7.4-11.5
		c-0.5-0.3-0.6-0.9-0.3-1.4c0.3-0.5,0.9-0.6,1.4-0.3C35.2,28.3,38,33.1,38,39V40z"/>
</g>
</svg>
