<svg xmlns="http://www.w3.org/2000/svg" xmlns:xlink="http://www.w3.org/1999/xlink" preserveAspectRatio="xMidYMid" width="32" height="31" viewBox="0 0 32 31">
  <defs>
    <style>
      .cls-1 {
        fill: #fff;
        fill-rule: evenodd;
      }
    </style>
  </defs>
  <path d="M16.000,-0.000 C7.163,-0.000 0.000,6.940 0.000,15.501 C0.000,18.370 0.805,21.058 2.207,23.362 L1.143,28.831 L7.885,28.863 C10.343,30.267 13.146,31.006 16.000,31.001 C24.837,31.001 32.000,24.062 32.000,15.501 C32.000,6.939 24.837,-0.000 16.000,-0.000 ZM8.000,17.382 C6.927,17.382 6.058,16.540 6.058,15.501 C6.058,14.461 6.927,13.619 8.000,13.619 C9.073,13.619 9.942,14.461 9.942,15.501 C9.942,16.540 9.073,17.382 8.000,17.382 ZM16.000,17.382 C14.927,17.382 14.058,16.540 14.058,15.501 C14.058,14.461 14.927,13.619 16.000,13.619 C17.073,13.619 17.942,14.461 17.942,15.501 C17.942,16.540 17.073,17.382 16.000,17.382 ZM24.000,17.382 C22.927,17.382 22.058,16.540 22.058,15.501 C22.058,14.461 22.927,13.619 24.000,13.619 L24.000,13.619 C25.073,13.619 25.942,14.461 25.942,15.501 C25.942,16.540 25.073,17.382 24.000,17.382 Z" class="cls-1"/>
</svg>
