<?xml version="1.0" encoding="utf-8"?>
<!-- Generator: Adobe Illustrator 21.0.0, SVG Export Plug-In . SVG Version: 6.00 Build 0)  -->
<svg version="1.1" id="图层_1" xmlns="http://www.w3.org/2000/svg" xmlns:xlink="http://www.w3.org/1999/xlink" x="0px" y="0px"
	 viewBox="0 0 24 24" style="enable-background:new 0 0 24 24;" xml:space="preserve">
<style type="text/css">
	.st0{fill:#333333;}
</style>
<g>
	<path class="st0" d="M1,10l8.5,5.4c0.8,0.5,1.8,0.8,2.8,0.8c1,0,2.1-0.3,2.8-0.8l7.9-5.2v7.1c0,1.6-1.3,2.9-2.9,2.9H3.8
		C2.3,20.3,1,19,1,17.4V10 M0.9,8.9C0.4,8.9,0,9.3,0,9.8v7.6c0,2.1,1.7,3.9,3.9,3.9h16.3c2.1,0,3.9-1.7,3.9-3.9V10
		c0-0.5-0.4-0.9-0.9-0.9c-0.2,0-0.3,0-0.5,0.1l-8.1,5.3c-0.6,0.4-1.5,0.6-2.3,0.6c-0.8,0-1.6-0.2-2.2-0.6L1.3,9.1
		C1.2,9,1,8.9,0.9,8.9L0.9,8.9z"/>
</g>
<g>
	<path class="st0" d="M21,3.9c1,0,1.8,0.7,2,1.6l-10.2,6.7c-0.1,0.1-0.3,0.1-0.5,0.1c-0.2,0-0.4-0.1-0.5-0.1L1,5.4
		c0.2-0.9,1-1.5,1.9-1.5H21 M21,2.9H3c-1.7,0-3,1.3-3,3c0,0,0,0,0,0l11.3,7.2c0.3,0.2,0.6,0.3,1,0.3c0.4,0,0.7-0.1,1-0.3L24,6V5.9
		C24,4.2,22.6,2.9,21,2.9L21,2.9z"/>
</g>
</svg>
