<?xml version="1.0" encoding="utf-8"?>
<!-- Generator: Adobe Illustrator 21.0.0, SVG Export Plug-In . SVG Version: 6.00 Build 0)  -->
<svg version="1.1" id="图层_1" xmlns="http://www.w3.org/2000/svg" xmlns:xlink="http://www.w3.org/1999/xlink" x="0px" y="0px"
	 viewBox="0 0 24 24" style="enable-background:new 0 0 24 24;" xml:space="preserve">
<style type="text/css">
	.st0{fill:#C8392C;}
</style>
<g>
	<path class="st0" d="M8,1c1,0,2,1,2,2v5c0,1-1,2-2,2H3c-1,0-2-1-2-2V3c0-1,1-2,2-2H8 M8,0H3C1.4,0,0,1.4,0,3v5c0,1.6,1.4,3,3,3h5
		c1.6,0,3-1.4,3-3V3C11,1.4,9.6,0,8,0L8,0z"/>
</g>
<g>
	<path class="st0" d="M8,14c1,0,2,1,2,2v5c0,1-1,2-2,2H3c-1,0-2-1-2-2v-5c0-1,1-2,2-2H8 M8,13H3c-1.6,0-3,1.4-3,3v5c0,1.6,1.4,3,3,3
		h5c1.6,0,3-1.4,3-3v-5C11,14.4,9.6,13,8,13L8,13z"/>
</g>
<g>
	<path class="st0" d="M21,1c1,0,2,1,2,2v8.3c0,1.1-0.9,2-2,2h-5c-1,0-2-1-2-2V3c0-1,1-2,2-2H21 M21,0h-5c-1.6,0-3,1.4-3,3v8.3
		c0,1.6,1.4,3,3,3h5c1.6,0,3-1.3,3-3V3C24,1.4,22.6,0,21,0L21,0z"/>
</g>
<g>
	<path class="st0" d="M21,17c1,0,2,1,2,2v2c0,1-1,2-2,2h-5c-1,0-2-1-2-2v-2c0-1,1-2,2-2H21 M21,16h-5c-1.6,0-3,1.4-3,3v2
		c0,1.6,1.4,3,3,3h5c1.6,0,3-1.4,3-3v-2C24,17.4,22.6,16,21,16L21,16z"/>
</g>
</svg>
