<?xml version="1.0" encoding="utf-8"?>
<!-- Generator: Adobe Illustrator 21.0.0, SVG Export Plug-In . SVG Version: 6.00 Build 0)  -->
<svg version="1.1" id="图层_1" xmlns="http://www.w3.org/2000/svg" xmlns:xlink="http://www.w3.org/1999/xlink" x="0px" y="0px"
	 viewBox="0 0 20 20" style="enable-background:new 0 0 20 20;" xml:space="preserve">
<style type="text/css">
	.st0{fill:#CCCCCC;}
</style>
<path class="st0" d="M18.3,18.8l-3.4-4.4c0.2-0.2,0.3-0.3,0.5-0.5c0.7-0.7,1.4-1.6,1.7-2.5c0.4-1,0.6-2.1,0.6-3.2
	c0-1.1-0.2-2.1-0.6-3.2c-0.4-1-1-1.7-1.7-2.5c-0.7-0.7-1.6-1.4-2.5-1.7c-1-0.4-2.1-0.6-3.2-0.6S7.5,0.3,6.5,0.7
	c-1,0.4-1.8,1-2.5,1.7C3.2,3.3,2.6,4.1,2.2,5.1S1.6,7.2,1.6,8.3c0,1.1,0.2,2.1,0.6,3.2c0.4,1,1,1.8,1.7,2.5c0.7,0.7,1.6,1.4,2.5,1.7
	c1,0.4,2.1,0.6,3.2,0.6s2.1-0.2,3.2-0.6c0.3-0.2,0.6-0.2,0.9-0.4l3.4,4.4c0.2,0.3,0.7,0.4,1,0.2l0,0C18.4,19.6,18.5,19.1,18.3,18.8z
	 M9.7,14.9c-3.7,0-6.8-3-6.8-6.8s3-6.8,6.8-6.8s6.8,3,6.8,6.8C16.4,11.9,13.3,14.9,9.7,14.9z"/>
</svg>
