<?xml version="1.0" encoding="utf-8"?>
<!-- Generator: Adobe Illustrator 21.0.0, SVG Export Plug-In . SVG Version: 6.00 Build 0)  -->
<svg version="1.1" id="图层_1" xmlns="http://www.w3.org/2000/svg" xmlns:xlink="http://www.w3.org/1999/xlink" x="0px" y="0px"
	 viewBox="0 0 60 60" style="enable-background:new 0 0 60 60;" xml:space="preserve">
<style type="text/css">
	.st0{fill:#888888;}
</style>
<path class="st0" d="M42.9,2.1C42.9,1,43.8,0,45,0h12.9C59,0,60,1,60,2.1v55.7c0,1.2-1,2.1-2.1,2.1H45c-1.2,0-2.1-1-2.1-2.1V2.1z
	 M0,19.3c0-1.2,1-2.1,2.1-2.1c0,0,0,0,0,0H15c1.2,0,2.1,1,2.1,2.1v38.6c0,1.2-1,2.1-2.1,2.1H2.1C1,60,0,59,0,57.9V19.3z M21.4,32.1
	c0-1.2,1-2.1,2.1-2.1h12.9c1.2,0,2.1,1,2.1,2.1v25.7c0,1.2-1,2.1-2.1,2.1H23.6c-1.2,0-2.1-1-2.1-2.1V32.1z"/>
</svg>
