<?xml version="1.0" standalone="no"?><!DOCTYPE svg PUBLIC "-//W3C//DTD SVG 1.1//EN" "http://www.w3.org/Graphics/SVG/1.1/DTD/svg11.dtd"><svg t="1506320298484" class="icon" style="" viewBox="0 0 1024 1024" version="1.1" xmlns="http://www.w3.org/2000/svg" p-id="2355" xmlns:xlink="http://www.w3.org/1999/xlink" width="200" height="200"><defs><style type="text/css"></style></defs><path d="M144.576 562.816l354.992-371.152 354.832 371.152c10.272 10.752 27.024 10.752 37.328 0 10.336-10.816 10.336-28.272 0-39.104l-373.52-390.608c-10.352-10.832-27.024-10.832-37.328 0l-373.664 390.592c-10.304 10.848-10.304 28.304 0 39.104 10.384 10.768 27.056 10.768 37.36 0.016z" p-id="2356" fill="#cdcdcd"></path><path d="M144.576 916.944l354.992-371.184 354.832 371.184c10.272 10.736 27.024 10.736 37.328 0 10.336-10.848 10.336-28.272 0-39.12l-373.52-390.608c-10.352-10.832-27.024-10.832-37.328 0l-373.664 390.592c-10.304 10.864-10.304 28.288 0 39.12 10.384 10.736 27.056 10.736 37.36 0.016z" p-id="2357" fill="#cdcdcd"></path></svg>