<?xml version="1.0" encoding="utf-8"?>
<!-- Generator: Adobe Illustrator 21.0.0, SVG Export Plug-In . SVG Version: 6.00 Build 0)  -->
<svg version="1.1" id="图层_1" xmlns="http://www.w3.org/2000/svg" xmlns:xlink="http://www.w3.org/1999/xlink" x="0px" y="0px"
	 viewBox="0 0 50 50" style="enable-background:new 0 0 50 50;" xml:space="preserve">
<style type="text/css">
	.st0{fill:#DD062C;}
</style>
<g>
	<path class="st0" d="M44,15c1.7,0,3,1.3,3,3v27c0,1.7-1.3,3-3,3H6c-1.7,0-3-1.3-3-3V18c0-1.7,1.3-3,3-3H44 M44,13H6
		c-2.8,0-5,2.2-5,5v27c0,2.8,2.2,5,5,5h38c2.8,0,5-2.2,5-5V18C49,15.2,46.8,13,44,13L44,13z"/>
</g>
<g>
	<g>
		<path class="st0" d="M15.1,7.1h-0.2c-0.5,0-0.9,0.4-0.9,0.9v12.2c0,0.5,0.4,0.9,0.9,0.9h0.2c0.5,0,0.9-0.4,0.9-0.9V7.9
			C16,7.5,15.6,7.1,15.1,7.1L15.1,7.1z"/>
	</g>
	<g>
		<path class="st0" d="M35.1,7.1h-0.2c-0.5,0-0.9,0.4-0.9,0.9v12.2c0,0.5,0.4,0.9,0.9,0.9h0.2c0.5,0,0.9-0.4,0.9-0.9V7.9
			C36,7.5,35.6,7.1,35.1,7.1L35.1,7.1z"/>
	</g>
</g>
<g>
	<path class="st0" d="M32,25H18c-0.4,0-0.8,0.4-0.8,0.8v0.4c0,0.4,0.4,0.8,0.8,0.8H32c0.4,0,0.8-0.4,0.8-0.8v-0.4
		C32.8,25.3,32.4,25,32,25L32,25z"/>
</g>
<g>
	<path class="st0" d="M38.1,40.9H11.9c-0.4,0-0.8,0.4-0.8,0.8v0.4c0,0.4,0.4,0.8,0.8,0.8h26.2c0.4,0,0.8-0.4,0.8-0.8v-0.4
		C38.9,41.3,38.5,40.9,38.1,40.9L38.1,40.9z"/>
</g>
<g>
	<path class="st0" d="M35,33H15c-0.4,0-0.8,0.4-0.8,0.8v0.4c0,0.4,0.4,0.8,0.8,0.8h20c0.4,0,0.8-0.4,0.8-0.8v-0.4
		C35.8,33.3,35.5,33,35,33L35,33z"/>
</g>
</svg>
