<?xml version="1.0" encoding="utf-8"?>
<!-- Generator: Adobe Illustrator 21.0.0, SVG Export Plug-In . SVG Version: 6.00 Build 0)  -->
<svg version="1.1" id="图层_1" xmlns="http://www.w3.org/2000/svg" xmlns:xlink="http://www.w3.org/1999/xlink" x="0px" y="0px"
	 viewBox="0 0 50 50" style="enable-background:new 0 0 50 50;" xml:space="preserve">
<style type="text/css">
	.st0{fill:#DD062C;}
	.st1{fill:none;stroke:#DD062C;stroke-width:2;stroke-linecap:round;stroke-linejoin:round;stroke-miterlimit:10;}
</style>
<g>
	<path class="st0" d="M44,15c1.7,0,3,1.3,3,3v27c0,1.7-1.3,3-3,3H6c-1.7,0-3-1.3-3-3V18c0-1.7,1.3-3,3-3H44 M6,13c-2.8,0-5,2.2-5,5
		v27c0,2.8,2.2,5,5,5h38c2.8,0,5-2.2,5-5V18c0-2.8-2.2-5-5-5l0,0"/>
</g>
<g>
	<path class="st0" d="M25.1,26h-0.2c-0.5,0-0.9,0.3-0.9,0.7v9.6c0,0.4,0.4,0.7,0.9,0.7h0.2c0.5,0,0.9-0.3,0.9-0.7v-9.7
		C26,26.3,25.6,26,25.1,26L25.1,26z"/>
</g>
<path class="st1" d="M10.2,14c0-6.9,6.6-12.4,14.8-12.4c6.1,0,11.4,3.1,13.6,7.6"/>
</svg>
