<?xml version="1.0" encoding="utf-8"?>
<!-- Generator: Adobe Illustrator 21.0.0, SVG Export Plug-In . SVG Version: 6.00 Build 0)  -->
<svg version="1.1" id="图层_1" xmlns="http://www.w3.org/2000/svg" xmlns:xlink="http://www.w3.org/1999/xlink" x="0px" y="0px"
	 viewBox="0 0 50 50" style="enable-background:new 0 0 50 50;" xml:space="preserve">
<style type="text/css">
	.st0{fill:#DD062C;}
	.st1{fill:none;stroke:#DD062C;stroke-width:2;stroke-miterlimit:10;}
	.st2{fill:none;stroke:#DD062C;stroke-width:2;stroke-linecap:round;stroke-miterlimit:10;}
</style>
<path class="st0" d="M37.9,38.7"/>
<circle class="st1" cx="29" cy="20.8" r="9"/>
<path class="st2" d="M18,40.9c0-6.1,4.9-11,11-11s11,4.9,11,11"/>
<g>
	<path class="st0" d="M44,50H14c-3.3,0-6-2.6-6-5.8c0-0.5,0.4-1,1-1s1,0.4,1,1c0,2.1,1.8,3.8,4,3.8h30c2.2,0,4-1.7,4-3.8V5.8
		c0-2.1-1.8-3.8-4-3.8H14c-2.2,0-4,1.7-4,3.8c0,0.5-0.4,1-1,1s-1-0.4-1-1C8,2.6,10.7,0,14,0h30c3.3,0,6,2.6,6,5.8v38.5
		C50,47.4,47.3,50,44,50z"/>
</g>
<path class="st0" d="M9.3,12h-6c-0.6,0-1-0.4-1-1v0c0-0.6,0.4-1,1-1h6c0.6,0,1,0.4,1,1v0C10.2,11.6,9.8,12,9.3,12z"/>
<path class="st0" d="M9.3,26h-6c-0.6,0-1-0.4-1-1v0c0-0.6,0.4-1,1-1h6c0.6,0,1,0.4,1,1v0C10.2,25.6,9.8,26,9.3,26z"/>
<path class="st0" d="M9.3,40h-6c-0.6,0-1-0.4-1-1l0,0c0-0.6,0.4-1,1-1h6c0.6,0,1,0.4,1,1l0,0C10.2,39.6,9.8,40,9.3,40z"/>
</svg>
