<?xml version="1.0" encoding="utf-8"?>
<!-- Generator: Adobe Illustrator 21.0.0, SVG Export Plug-In . SVG Version: 6.00 Build 0)  -->
<svg version="1.1" id="图层_1" xmlns="http://www.w3.org/2000/svg" xmlns:xlink="http://www.w3.org/1999/xlink" x="0px" y="0px"
	 viewBox="0 0 50 50" style="enable-background:new 0 0 50 50;" xml:space="preserve">
<style type="text/css">
	.st0{fill:#DD062C;}
</style>
<g>
	<path class="st0" d="M41,2c1.7,0,3,1.3,3,3v40c0,1.7-1.3,3-3,3H9c-1.7,0-3-1.3-3-3V5c0-1.7,1.3-3,3-3H41 M41,0H9C6.2,0,4,2.2,4,5
		v40c0,2.8,2.2,5,5,5h32c2.8,0,5-2.2,5-5V5C46,2.2,43.8,0,41,0L41,0z"/>
</g>
<g>
	<path class="st0" d="M29,17H15c-0.4,0-0.8,0.4-0.8,0.8v0.4c0,0.4,0.4,0.8,0.8,0.8H29c0.4,0,0.8-0.4,0.8-0.8v-0.4
		C29.8,17.3,29.4,17,29,17L29,17z"/>
</g>
<g>
	<path class="st0" d="M35,9H15c-0.4,0-0.8,0.4-0.8,0.8v0.4c0,0.4,0.4,0.8,0.8,0.8h20c0.4,0,0.8-0.4,0.8-0.8V9.8
		C35.8,9.4,35.5,9,35,9L35,9z"/>
</g>
<g>
	<g>
		<path class="st0" d="M29,36.8c-0.2,0-0.4,0.1-0.5,0.2l-0.3,0.3c-0.3,0.3-0.3,0.8,0,1.1l4.5,4.9c0.2,0.2,0.4,0.3,0.6,0.3
			c0.2,0,0.4-0.1,0.5-0.2l0.3-0.3c0.3-0.3,0.3-0.8,0-1.1L29.6,37C29.4,36.9,29.2,36.8,29,36.8L29,36.8z"/>
	</g>
	<g>
		<path class="st0" d="M23.8,26c3.4,0,6.1,2.7,6.1,6.1s-2.7,6.1-6.1,6.1s-6.1-2.7-6.1-6.1S20.4,26,23.8,26 M23.8,24
			c-4.5,0-8.1,3.6-8.1,8.1s3.6,8.1,8.1,8.1s8.1-3.6,8.1-8.1S28.3,24,23.8,24L23.8,24z"/>
	</g>
</g>
</svg>
