<?xml version="1.0" encoding="utf-8"?>
<!-- Generator: Adobe Illustrator 21.0.0, SVG Export Plug-In . SVG Version: 6.00 Build 0)  -->
<svg version="1.1" id="图层_1" xmlns="http://www.w3.org/2000/svg" xmlns:xlink="http://www.w3.org/1999/xlink" x="0px" y="0px"
	 viewBox="0 0 24 24" style="enable-background:new 0 0 24 24;" xml:space="preserve">
<style type="text/css">
	.st0{fill:#C8392C;}
</style>
<g>
	<path class="st0" d="M12,1c2.6,0,4.7,2.1,4.7,4.7s-2.1,4.7-4.7,4.7S7.3,8.4,7.3,5.7S9.4,1,12,1 M12,0C8.8,0,6.3,2.6,6.3,5.7
		s2.6,5.7,5.7,5.7s5.7-2.6,5.7-5.7S15.2,0,12,0L12,0z"/>
</g>
<g>
	<path class="st0" d="M14.9,14.6c3.1,0,5.6,2.5,5.6,5.6v1.1c0,1-0.8,1.8-1.8,1.8H5.3c-1,0-1.8-0.8-1.8-1.8v-1.1
		c0-3.1,2.5-5.6,5.6-5.6H14.9 M14.9,13.6H9.1c-3.6,0-6.6,3-6.6,6.6v1.1c0,1.5,1.2,2.8,2.8,2.8h13.5c1.5,0,2.8-1.2,2.8-2.8v-1.1
		C21.5,16.5,18.5,13.6,14.9,13.6L14.9,13.6z"/>
</g>
</svg>
