<?xml version="1.0" encoding="utf-8"?>
<!-- Generator: Adobe Illustrator 21.0.0, SVG Export Plug-In . SVG Version: 6.00 Build 0)  -->
<svg version="1.1" id="图层_1" xmlns="http://www.w3.org/2000/svg" xmlns:xlink="http://www.w3.org/1999/xlink" x="0px" y="0px"
	 viewBox="0 0 16 16" style="enable-background:new 0 0 16 16;" xml:space="preserve">
<style type="text/css">
	.st0{fill:#FFFFFF;}
</style>
<g>
	<path class="st0" d="M8.1,16H7.9c-0.3,0-0.5-0.2-0.5-0.5V0.5C7.4,0.2,7.6,0,7.9,0h0.1c0.3,0,0.5,0.2,0.5,0.5v14.9
		C8.6,15.8,8.4,16,8.1,16z"/>
	<path class="st0" d="M0,8V7.8c0-0.3,0.2-0.5,0.5-0.5h14.9c0.3,0,0.5,0.2,0.5,0.5V8c0,0.3-0.2,0.5-0.5,0.5H0.5C0.2,8.5,0,8.3,0,8z"
		/>
</g>
</svg>
