<?xml version="1.0" encoding="utf-8"?>
<!-- Generator: Adobe Illustrator 21.0.0, SVG Export Plug-In . SVG Version: 6.00 Build 0)  -->
<svg version="1.1" id="图层_1" xmlns="http://www.w3.org/2000/svg" xmlns:xlink="http://www.w3.org/1999/xlink" x="0px" y="0px"
	 viewBox="0 0 16 16" style="enable-background:new 0 0 16 16;" xml:space="preserve">
<style type="text/css">
	.st0{fill:#FFFFFF;}
</style>
<g>
	<path class="st0" d="M15.4,4.3C15.7,4.3,16,4,16,3.7s-0.3-0.6-0.6-0.6l0,0H0.6C0.3,3.3,0,3.4,0,3.7s0.3,0.6,0.6,0.6H15.4z
		 M5.7,12.1c0,0.3,0.3,0.6,0.6,0.6c0.3,0,0.6-0.3,0.6-0.6l0,0V6.6C6.9,6.3,6.6,6,6.3,6C6,6,5.7,6.3,5.7,6.6V12.1z M9.1,12.1
		c0,0.3,0.3,0.6,0.6,0.6s0.6-0.3,0.6-0.6V6.6C10.3,6.3,10,6,9.7,6C9.4,6,9.1,6.3,9.1,6.6V12.1z"/>
	<path class="st0" d="M3.4,4.3H2.3l0,10C2.3,15.2,3.1,16,4,16h8c0.9,0,1.7-0.8,1.7-1.7v-10h-1.1v10c0,0.3-0.3,0.6-0.6,0.6H4l0,0
		c-0.3,0-0.6-0.3-0.6-0.6C3.4,14.3,3.4,4.3,3.4,4.3z"/>
	<path class="st0" d="M4.3,3.3h0.2V1.5C4.5,1.2,4.7,1,5,1h6c0.3,0,0.5,0.2,0.5,0.5v1.9h0.8c0.1,0,0.1,0,0.2,0V1.5
		C12.5,0.7,11.8,0,11,0H5C4.2,0,3.5,0.7,3.5,1.5v2C3.8,3.4,4,3.3,4.3,3.3z"/>
</g>
</svg>
