<?xml version="1.0" encoding="utf-8"?>
<!-- Generator: Adobe Illustrator 21.0.0, SVG Export Plug-In . SVG Version: 6.00 Build 0)  -->
<svg version="1.1" id="图层_1" xmlns="http://www.w3.org/2000/svg" xmlns:xlink="http://www.w3.org/1999/xlink" x="0px" y="0px"
	 viewBox="0 0 16 16" style="enable-background:new 0 0 16 16;" xml:space="preserve">
<style type="text/css">
	.st0{fill:#FFFFFF;}
</style>
<g>
	<path class="st0" d="M13.8,3L3,13.8c-0.3,0.3-0.6,0.3-0.9,0l0,0c-0.3-0.3-0.3-0.6,0-0.9L13,2.2c0.3-0.3,0.6-0.3,0.9,0l0,0
		C14.1,2.4,14.1,2.8,13.8,3z"/>
	<path class="st0" d="M2.2,2.2L2.2,2.2C1.9,2.4,1.9,2.8,2.2,3L13,13.8c0.3,0.3,0.6,0.3,0.9,0l0,0c0.3-0.3,0.3-0.6,0-0.9L3,2.2
		C2.8,1.9,2.4,1.9,2.2,2.2z"/>
</g>
</svg>
