<?xml version="1.0" encoding="utf-8"?>
<!-- Generator: Adobe Illustrator 21.0.0, SVG Export Plug-In . SVG Version: 6.00 Build 0)  -->
<svg version="1.1" id="图层_1" xmlns="http://www.w3.org/2000/svg" xmlns:xlink="http://www.w3.org/1999/xlink" x="0px" y="0px"
	 viewBox="0 0 16 16" style="enable-background:new 0 0 16 16;" xml:space="preserve">
<style type="text/css">
	.st0{fill:#FFFFFF;}
</style>
<g>
	<g>
		<path class="st0" d="M13.2,5.2l-5-5c0,0-0.1-0.1-0.1-0.1l0,0c0,0,0,0-0.1,0c0,0,0,0,0,0c-0.1,0-0.1,0-0.2,0c0,0,0,0,0,0
			c0,0,0,0-0.1,0l0,0c0,0-0.1,0-0.1,0.1l-5,5c-0.2,0.2-0.2,0.4,0,0.6c0.2,0.2,0.4,0.2,0.6,0l4.3-4.3v10c0,0.2,0.2,0.4,0.4,0.4
			c0.2,0,0.4-0.2,0.4-0.4v-10l4.3,4.3c0.2,0.2,0.4,0.2,0.6,0C13.4,5.6,13.4,5.4,13.2,5.2z"/>
		<path class="st0" d="M8,12c-0.3,0-0.5-0.2-0.5-0.5V1.8L3.4,5.9c-0.2,0.2-0.5,0.2-0.8,0c-0.2-0.2-0.2-0.6,0-0.8l5-5
			c0,0,0.1-0.1,0.1-0.1l0,0c0,0,0.1,0,0.1,0C8,0,8,0,8.1,0c0,0,0.1,0,0.1,0l0.1,0c0,0,0.1,0.1,0.1,0.1l5,5c0.2,0.2,0.2,0.6,0,0.8
			c-0.2,0.2-0.5,0.2-0.8,0L8.5,1.8v9.7C8.5,11.8,8.3,12,8,12z M7.8,1.1v10.4c0,0.1,0.1,0.2,0.2,0.2c0.1,0,0.2-0.1,0.2-0.2V1.1
			l4.6,4.6c0.1,0.1,0.2,0.1,0.3,0c0.1-0.1,0.1-0.3,0-0.3l-5-5c0,0,0,0-0.1-0.1l0,0c0,0,0,0,0,0c0,0-0.1,0-0.1,0c0,0,0,0,0,0l0,0
			c0,0-0.1,0-0.1,0.1l-5,5c-0.1,0.1-0.1,0.3,0,0.3c0.1,0.1,0.3,0.1,0.3,0L7.8,1.1z"/>
	</g>
	<g>
		<path class="st0" d="M15,10.3l0,3.9c0,0.4-0.3,0.8-0.8,0.8l0,0L1.8,15C1.3,15,1,14.7,1,14.2l0,0l0-3.9c0-0.2-0.2-0.4-0.4-0.4
			s-0.4,0.2-0.4,0.4c0,0,0,0,0,0l0,3.9c0,0.9,0.7,1.6,1.6,1.6l12.5,0c0.9,0,1.6-0.7,1.6-1.6l0-3.9c0-0.2-0.2-0.4-0.4-0.4
			C15.2,9.9,15,10.1,15,10.3C15,10.3,15,10.3,15,10.3z"/>
		<path class="st0" d="M14.2,16L1.8,16c-1,0-1.8-0.8-1.8-1.8l0-3.9C0,10,0.3,9.7,0.6,9.7s0.6,0.3,0.6,0.6l0,3.9
			c0,0.3,0.3,0.6,0.6,0.6l12.5,0c0.3,0,0.6-0.3,0.6-0.6v-3.9c0-0.3,0.3-0.6,0.6-0.6c0.3,0,0.6,0.3,0.6,0.6l0,3.9
			C16,15.2,15.2,16,14.2,16z M0.6,10.1c-0.1,0-0.2,0.1-0.2,0.2l0,3.9c0,0.8,0.6,1.4,1.4,1.4l12.5,0c0.8,0,1.4-0.6,1.4-1.4l0-3.9
			c0-0.1-0.1-0.2-0.2-0.2c-0.1,0-0.2,0.1-0.2,0.2H15l0.2,0v3.9c0,0.5-0.4,1-1,1l-12.5,0c-0.5,0-1-0.4-1-1l0-3.9
			C0.8,10.2,0.7,10.1,0.6,10.1z"/>
	</g>
</g>
</svg>
