<?xml version="1.0" encoding="utf-8"?>
<!-- Generator: Adobe Illustrator 21.0.0, SVG Export Plug-In . SVG Version: 6.00 Build 0)  -->
<svg version="1.1" id="图层_1" xmlns="http://www.w3.org/2000/svg" xmlns:xlink="http://www.w3.org/1999/xlink" x="0px" y="0px"
	 viewBox="0 0 16 16" style="enable-background:new 0 0 16 16;" xml:space="preserve">
<style type="text/css">
	.st0{fill:#FFFFFF;}
</style>
<g>
	<g>
		<path class="st0" d="M2.8,6.8l5,5c0,0,0.1,0.1,0.1,0.1l0,0c0,0,0,0,0.1,0c0,0,0,0,0,0c0.1,0,0.1,0,0.2,0c0,0,0,0,0,0
			c0,0,0,0,0.1,0l0,0c0,0,0.1,0,0.1-0.1l5-5c0.2-0.2,0.2-0.4,0-0.6c-0.2-0.2-0.4-0.2-0.6,0l-4.3,4.3v-10c0-0.2-0.2-0.4-0.4-0.4
			S7.6,0.3,7.6,0.5v10L3.3,6.2c-0.2-0.2-0.4-0.2-0.6,0C2.6,6.4,2.6,6.6,2.8,6.8z"/>
		<path class="st0" d="M8,12C8,12,7.9,12,8,12c-0.1,0-0.2,0-0.2,0l-0.1,0c0,0-0.1-0.1-0.1-0.1l-5-5c-0.2-0.2-0.2-0.6,0-0.8
			c0.2-0.2,0.5-0.2,0.8,0l4.1,4.1V0.5C7.5,0.2,7.7,0,8,0s0.5,0.2,0.5,0.5v9.7l4.1-4.1c0.2-0.2,0.5-0.2,0.8,0c0.2,0.2,0.2,0.6,0,0.8
			l-5,5c0,0-0.1,0.1-0.1,0.1l0,0l-0.1,0c0,0-0.1,0-0.1,0C8.1,12,8,12,8,12z M7.9,11.7C7.9,11.7,7.9,11.7,7.9,11.7c0.1,0,0.1,0,0.1,0
			c0,0,0,0,0,0l0,0c0,0,0.1,0,0.1-0.1l5-5c0.1-0.1,0.1-0.3,0-0.3c-0.1-0.1-0.2-0.1-0.3,0l-4.6,4.6V0.5c0-0.1-0.1-0.2-0.2-0.2
			c-0.1,0-0.2,0.1-0.2,0.2v10.4L3.2,6.3C3.1,6.2,3,6.2,2.9,6.3c-0.1,0.1-0.1,0.3,0,0.3L7.9,11.7C7.8,11.7,7.9,11.7,7.9,11.7
			L7.9,11.7z"/>
	</g>
	<g>
		<path class="st0" d="M15,10.3l0,3.9c0,0.4-0.3,0.8-0.8,0.8l0,0L1.8,15C1.3,15,1,14.7,1,14.2l0,0l0-3.9c0-0.2-0.2-0.4-0.4-0.4
			s-0.4,0.2-0.4,0.4c0,0,0,0,0,0l0,3.9c0,0.9,0.7,1.6,1.6,1.6l12.5,0c0.9,0,1.6-0.7,1.6-1.6l0-3.9c0-0.2-0.2-0.4-0.4-0.4
			C15.2,9.9,15,10.1,15,10.3C15,10.3,15,10.3,15,10.3z"/>
		<path class="st0" d="M14.2,16L1.8,16c-1,0-1.8-0.8-1.8-1.8l0-3.9C0,10,0.3,9.7,0.6,9.7s0.6,0.3,0.6,0.6l0,3.9
			c0,0.3,0.3,0.6,0.6,0.6l12.5,0c0.3,0,0.6-0.3,0.6-0.6v-3.9c0-0.3,0.3-0.6,0.6-0.6c0.3,0,0.6,0.3,0.6,0.6l0,3.9
			C16,15.2,15.2,16,14.2,16z M0.6,10.1c-0.1,0-0.2,0.1-0.2,0.2l0,3.9c0,0.8,0.6,1.4,1.4,1.4l12.5,0c0.8,0,1.4-0.6,1.4-1.4l0-3.9
			c0-0.1-0.1-0.2-0.2-0.2c-0.1,0-0.2,0.1-0.2,0.2H15l0.2,0v3.9c0,0.5-0.4,1-1,1l-12.5,0c-0.5,0-1-0.4-1-1l0-3.9
			C0.8,10.2,0.7,10.1,0.6,10.1z"/>
	</g>
</g>
</svg>
