<?xml version="1.0" encoding="utf-8"?>
<!-- Generator: Adobe Illustrator 21.0.0, SVG Export Plug-In . SVG Version: 6.00 Build 0)  -->
<svg version="1.1" id="图层_1" xmlns="http://www.w3.org/2000/svg" xmlns:xlink="http://www.w3.org/1999/xlink" x="0px" y="0px"
	 viewBox="0 0 16 16" style="enable-background:new 0 0 16 16;" xml:space="preserve">
<style type="text/css">
	.st0{fill:#FFFFFF;}
</style>
<path class="st0" d="M8,0C4.7,0,2,2.7,2,6c0,2.5,5,10,6,10c1,0,6-7.5,6-10C14,2.7,11.3,0,8,0z M8,14.5c-0.8,0-5-6.4-5-8.5
	c0-2.8,2.2-5,5-5s5,2.2,5,5C13,8.1,8.8,14.5,8,14.5z M8,3.5C6.6,3.5,5.5,4.6,5.5,6c0,1.4,1.1,2.5,2.5,2.5c1.4,0,2.5-1.1,2.5-2.5
	C10.5,4.6,9.4,3.5,8,3.5z M8,7.5C7.2,7.5,6.5,6.8,6.5,6c0-0.8,0.7-1.5,1.5-1.5S9.5,5.2,9.5,6C9.5,6.8,8.8,7.5,8,7.5z"/>
</svg>
