<?xml version="1.0" encoding="utf-8"?>
<!-- Generator: Adobe Illustrator 21.0.0, SVG Export Plug-In . SVG Version: 6.00 Build 0)  -->
<svg version="1.1" id="图层_1" xmlns="http://www.w3.org/2000/svg" xmlns:xlink="http://www.w3.org/1999/xlink" x="0px" y="0px"
	 viewBox="0 0 16 16" style="enable-background:new 0 0 16 16;" xml:space="preserve">
<style type="text/css">
	.st0{fill:#FFFFFF;}
</style>
<path class="st0" d="M1.8,3.1h8C13.2,3.1,16,6,16,9.5c0,3.6-2.8,6.5-6.2,6.5H3.7c-0.3,0-0.6-0.3-0.6-0.6s0.3-0.6,0.6-0.6h6.1
	c2.8,0,5.1-2.4,5.1-5.3s-2.3-5.3-5.1-5.3H2l1.9,2c0.2,0.2,0.2,0.6,0,0.8S3.3,7.3,3.1,7L0.2,4C0,3.8,0,3.6,0,3.4
	c0-0.1,0.1-0.2,0.2-0.3L3,0.2c0.2-0.2,0.6-0.2,0.8,0S4,0.8,3.8,1L1.8,3.1L1.8,3.1z"/>
</svg>
