<?xml version="1.0" encoding="utf-8"?>
<!-- Generator: Adobe Illustrator 21.0.0, SVG Export Plug-In . SVG Version: 6.00 Build 0)  -->
<svg version="1.1" id="图层_1" xmlns="http://www.w3.org/2000/svg" xmlns:xlink="http://www.w3.org/1999/xlink" x="0px" y="0px"
	 viewBox="0 0 16 16" style="enable-background:new 0 0 16 16;" xml:space="preserve">
<style type="text/css">
	.st0{fill:#FFFFFF;}
</style>
<path class="st0" d="M13.3,16H2.7C1.2,16,0,14.8,0,13.3V2.7C0,1.2,1.2,0,2.7,0h10.7C14.8,0,16,1.2,16,2.7v10.6
	C16,14.8,14.8,16,13.3,16L13.3,16z M2.8,1.1c-0.9,0-1.7,0.8-1.7,1.7v10.4c0,0.9,0.8,1.7,1.7,1.7h10.5c0.9,0,1.6-0.7,1.6-1.6V2.9
	c0-1-0.8-1.8-1.7-1.8H2.8L2.8,1.1z M13.1,8H2.9V0h10.2V8L13.1,8z M3.9,7h8.2V1.1H3.9V7L3.9,7z M9.5,2.6h1v3.5h-1V2.6L9.5,2.6z"/>
</svg>
