<?xml version="1.0" encoding="utf-8"?>
<!-- Generator: Adobe Illustrator 21.0.0, SVG Export Plug-In . SVG Version: 6.00 Build 0)  -->
<svg version="1.1" id="图层_1" xmlns="http://www.w3.org/2000/svg" xmlns:xlink="http://www.w3.org/1999/xlink" x="0px" y="0px"
	 viewBox="0 0 16 16" style="enable-background:new 0 0 16 16;" xml:space="preserve">
<style type="text/css">
	.st0{fill:#FFFFFF;}
</style>
<g>
	<path class="st0" d="M15.1,15.7c-0.4,0.4-1,0.4-1.4,0c0,0,0,0,0,0l-1.4-1.4c-0.4-0.4-0.4-1,0-1.4s1-0.4,1.4,0l1.4,1.4
		C15.5,14.7,15.5,15.3,15.1,15.7C15.1,15.7,15.1,15.7,15.1,15.7z"/>
	<g>
		<path class="st0" d="M7.7,14.2c-1.8,0-3.6-0.7-5-2.1l0,0l0,0c-1.3-1.3-2.1-3.1-2.1-5c0-1.9,0.7-3.7,2.1-5c2.8-2.8,7.3-2.8,10,0
			c2.8,2.8,2.8,7.3,0,10C11.3,13.5,9.5,14.2,7.7,14.2z M7.7,1.2c-1.5,0-3,0.6-4.2,1.7C2.4,4,1.8,5.5,1.8,7.1c0,1.6,0.6,3.1,1.7,4.2
			l0,0c2.3,2.3,6,2.3,8.3,0c1.1-1.1,1.7-2.6,1.7-4.2c0-1.6-0.6-3.1-1.7-4.2C10.7,1.8,9.2,1.2,7.7,1.2z"/>
	</g>
</g>
</svg>
