<?xml version="1.0" encoding="utf-8"?>
<!-- Generator: Adobe Illustrator 21.0.0, SVG Export Plug-In . SVG Version: 6.00 Build 0)  -->
<svg version="1.1" id="图层_1" xmlns="http://www.w3.org/2000/svg" xmlns:xlink="http://www.w3.org/1999/xlink" x="0px" y="0px"
	 viewBox="0 0 16 16" style="enable-background:new 0 0 16 16;" xml:space="preserve">
<style type="text/css">
	.st0{fill:none;stroke:#FFFFFF;stroke-width:1.2;stroke-miterlimit:10;}
	.st1{fill:#FFFFFF;}
</style>
<g>
	<path class="st0" d="M14.8,15.1H1.2c-0.3,0-0.6-0.3-0.6-0.6V1.2c0-0.3,0.3-0.6,0.6-0.6h13.6c0.3,0,0.6,0.3,0.6,0.6v13.2
		C15.4,14.8,15.1,15.1,14.8,15.1z"/>
	<g>
		<g>
			<path class="st1" d="M8.3,5.2L4.1,7.6C3.8,7.7,3.5,7.6,3.3,7.3l0,0C3.1,7.1,3.2,6.7,3.5,6.5l4.2-2.4C8,4,8.3,4.1,8.5,4.3l0,0
				C8.7,4.6,8.6,5,8.3,5.2z"/>
			<path class="st1" d="M11.9,7.6L7.7,5.2C7.4,5,7.3,4.6,7.5,4.4l0,0C7.7,4.1,8,4,8.3,4.1l4.2,2.4c0.3,0.2,0.4,0.5,0.2,0.8v0
				C12.5,7.6,12.2,7.7,11.9,7.6z"/>
		</g>
		<g>
			<path class="st1" d="M8.3,9.2l-4.2,2.4c-0.3,0.2-0.7,0.1-0.8-0.2l0,0c-0.2-0.3-0.1-0.7,0.2-0.8l4.2-2.4C8,8,8.3,8.1,8.5,8.3v0
				C8.7,8.6,8.6,9,8.3,9.2z"/>
			<path class="st1" d="M11.9,11.6L7.7,9.2C7.4,9,7.3,8.6,7.5,8.4l0,0C7.7,8.1,8,8,8.3,8.1l4.2,2.4c0.3,0.2,0.4,0.5,0.2,0.8v0
				C12.5,11.6,12.2,11.7,11.9,11.6z"/>
		</g>
	</g>
</g>
</svg>
