<?xml version="1.0" encoding="utf-8"?>
<!-- Generator: Adobe Illustrator 21.0.0, SVG Export Plug-In . SVG Version: 6.00 Build 0)  -->
<svg version="1.1" id="图层_1" xmlns="http://www.w3.org/2000/svg" xmlns:xlink="http://www.w3.org/1999/xlink" x="0px" y="0px"
	 viewBox="0 0 16 16" style="enable-background:new 0 0 16 16;" xml:space="preserve">
<style type="text/css">
	.st0{fill:#FFFFFF;}
</style>
<g>
	<path class="st0" d="M1.3,6.6L1.3,6.6l2.6-0.7c0.3-0.1,0.4-0.3,0.4-0.6C4.2,5.1,3.9,4.9,3.7,5L2.3,5.3C3.4,3.2,5.5,1.8,8,1.8
		c3,0,5.6,2.2,6.1,5.1c0,0.2,0.3,0.4,0.5,0.4h0.1c0.2-0.1,0.4-0.4,0.4-0.6C14.4,3.3,11.4,0.8,8,0.8c-2.9,0-5.3,1.6-6.5,4L1.1,3.5
		C1,3.2,0.7,3,0.5,3.1C0.2,3.2,0,3.5,0.1,3.7l0.7,2.6C0.9,6.5,1.1,6.6,1.3,6.6L1.3,6.6z M15.9,12l-0.7-2.6c-0.1-0.3-0.3-0.4-0.6-0.4
		l-2.5,0.6c-0.3,0.1-0.4,0.3-0.4,0.6c0.1,0.3,0.3,0.4,0.6,0.4l1.4-0.4c-0.9,2.4-3.2,3.9-5.8,3.9c-3.1,0-5.6-2.2-6.1-5.1
		c0-0.2-0.3-0.4-0.5-0.4C1,8.7,0.8,9,0.9,9.3c0.6,3.4,3.6,5.9,7.1,5.9c2.9,0,5.4-1.7,6.6-4.2l0.4,1.3c0.1,0.2,0.3,0.4,0.5,0.4h0.1
		C15.8,12.5,16,12.2,15.9,12L15.9,12z"/>
	<path class="st0" d="M8,15.3c-3.6,0-6.6-2.5-7.2-6c-0.1-0.2,0-0.3,0.1-0.5C1,8.7,1.1,8.6,1.3,8.6c0.2,0,0.6,0.2,0.6,0.5
		c0.5,2.9,3,5,6,5c2.5,0,4.7-1.5,5.6-3.7l-1.2,0.3c-0.4,0-0.6-0.1-0.7-0.5l0,0c0-0.4,0.1-0.6,0.5-0.7L14.6,9c0,0,0,0,0,0
		c0.4,0,0.6,0.1,0.7,0.5L16,12c0.1,0.3-0.1,0.6-0.3,0.7l0,0h-0.1c-0.2,0-0.5-0.2-0.6-0.4l-0.3-1.1C13.3,13.7,10.8,15.3,8,15.3z
		 M1.3,8.8c-0.1,0-0.2,0-0.3,0.1C1,9,1,9.1,1,9.2c0.6,3.4,3.5,5.8,7,5.8c2.8,0,5.3-1.6,6.5-4.2l0.1-0.2l0.5,1.5
		c0.1,0.1,0.2,0.3,0.4,0.3h0.1c0.2-0.1,0.3-0.3,0.2-0.4l0,0l-0.7-2.6c-0.1-0.2-0.2-0.3-0.5-0.3l-2.4,0.6c-0.2,0.1-0.3,0.2-0.3,0.5
		c0.1,0.2,0.2,0.3,0.5,0.3l1.6-0.4l-0.1,0.2c-0.9,2.4-3.3,4-5.9,4c-3.1,0-5.7-2.2-6.2-5.2C1.7,8.9,1.5,8.8,1.3,8.8z M14.7,7.4h-0.1
		c-0.2,0-0.6-0.2-0.6-0.5c-0.5-2.9-3.1-5-6-5c-2.3,0-4.4,1.3-5.5,3.3L3.6,5c0.1,0,0.2,0,0.3,0C4.1,5,4.3,5.1,4.3,5.3l0,0
		c0,0.4-0.1,0.6-0.5,0.7L1.4,6.7H1.3c-0.2,0-0.5-0.1-0.6-0.5L0,3.7c0-0.1,0-0.2,0-0.3C0.1,3.2,0.3,3.1,0.5,3c0.1,0,0.2,0,0.3,0
		C1,3.1,1.1,3.2,1.2,3.4l0.3,1.1C2.8,2.2,5.2,0.7,8,0.7c3.5,0,6.5,2.5,7.2,6C15.2,7,15,7.3,14.7,7.4L14.7,7.4z M8,1.7
		c3,0,5.7,2.2,6.2,5.2c0,0.2,0.2,0.3,0.4,0.3h0.1C14.8,7.1,15,6.9,15,6.7c-0.7-3.4-3.6-5.8-7-5.8c-2.8,0-5.2,1.5-6.4,4L1.5,5.1
		L1,3.5c0-0.1-0.2-0.3-0.3-0.3c0,0-0.1,0-0.2,0C0.4,3.2,0.3,3.3,0.2,3.5c0,0,0,0.1,0,0.2l0.7,2.6C1,6.4,1.1,6.5,1.3,6.5h0.1l2.4-0.7
		c0.2-0.1,0.3-0.2,0.3-0.5C4.1,5.3,4,5.2,3.9,5.1c0,0-0.1,0-0.2,0l0,0L2.1,5.5l0.1-0.2C3.3,3.1,5.5,1.7,8,1.7z"/>
</g>
</svg>
