<?xml version="1.0" encoding="utf-8"?>
<!-- Generator: Adobe Illustrator 21.0.0, SVG Export Plug-In . SVG Version: 6.00 Build 0)  -->
<svg version="1.1" id="图层_1" xmlns="http://www.w3.org/2000/svg" xmlns:xlink="http://www.w3.org/1999/xlink" x="0px" y="0px"
	 viewBox="0 0 16 16" style="enable-background:new 0 0 16 16;" xml:space="preserve">
<style type="text/css">
	.st0{fill:#FFFFFF;}
</style>
<path class="st0" d="M13.9,10.1c0.2-0.2,0.2-0.6,0-0.9c-0.2-0.2-0.6-0.2-0.8,0l0,0l-4.9,4.8c-1.4,1.2-3.5,1.1-4.9-0.3
	c-1.4-1.3-1.3-3.4-0.2-5L10,1.5c0.9-0.6,2.2-0.4,2.9,0.4c0.8,0.8,0.9,2.1,0.3,3L7,11.2c0,0.1-0.1,0.1-0.1,0.1
	c-0.3,0.3-0.8,0.3-1.2,0c-0.3-0.3-0.3-0.9,0-1.2L5.8,10l4.9-5c0,0,0.3-0.6,0.1-0.9c-0.2-0.2-0.6-0.2-0.8,0l0,0l0,0l-5,5L4.9,9.2
	c-0.8,0.8-0.8,2.2,0,3C5.7,13,7,13,7.8,12.2l0.1-0.1l6.3-6.2c1.1-1.4,0.9-3.5-0.3-4.9c-1.3-1.3-3.3-1.4-4.8-0.3l-6.8,7
	c-1.6,2-1.7,4.9,0.1,6.8c1.8,1.8,4.9,1.9,6.8,0.3l0,0L13.9,10.1L13.9,10.1z"/>
</svg>
