<?xml version="1.0" encoding="utf-8"?>
<!-- Generator: Adobe Illustrator 21.0.0, SVG Export Plug-In . SVG Version: 6.00 Build 0)  -->
<svg version="1.1" id="图层_1" xmlns="http://www.w3.org/2000/svg" xmlns:xlink="http://www.w3.org/1999/xlink" x="0px" y="0px"
	 viewBox="0 0 128 128" style="enable-background:new 0 0 128 128;" xml:space="preserve">
<style type="text/css">
	.st0{fill:#F25151;}
</style>
<path class="st0" d="M64,0C28.7,0,0,28.7,0,64s28.7,64,64,64c35.3,0,64-28.7,64-64S99.3,0,64,0z M93.3,82c1,1,1,2.6,0,3.5l-7.8,7.8
	c-1,1-2.6,1-3.5,0l-18-18l-18,18c-1,1-2.6,1-3.5,0l-7.8-7.8c-1-1-1-2.6,0-3.5l18-18l-18-18c-1-1-1-2.6,0-3.5l7.8-7.8
	c1-1,2.6-1,3.5,0l18,18l18-18c1-1,2.6-1,3.5,0l7.8,7.8c1,1,1,2.6,0,3.5l-18,18L93.3,82z"/>
</svg>
