<?xml version="1.0" encoding="utf-8"?>
<!-- Generator: Adobe Illustrator 21.0.0, SVG Export Plug-In . SVG Version: 6.00 Build 0)  -->
<svg version="1.1" id="图层_1" xmlns="http://www.w3.org/2000/svg" xmlns:xlink="http://www.w3.org/1999/xlink" x="0px" y="0px"
	 viewBox="0 0 24 24" style="enable-background:new 0 0 24 24;" xml:space="preserve">
<style type="text/css">
	.st0{fill:none;}
	.st1{fill:#A8ACC1;}
	.st2{fill:none;stroke:#A8ACC1;stroke-miterlimit:10;}
</style>
<rect id="_x3C_切片_x3E_" x="-1" class="st0" width="25" height="24"/>
<g>
	<path class="st1" d="M12,13L12,13c-0.4,0-0.8-0.4-0.8-0.8V5.6h1.6v6.6C12.8,12.6,12.4,13,12,13z"/>
	<path class="st2" d="M6.3,5v2c0,1.1-0.9,2-2,2H3C1.9,9,1,8.1,1,7V5"/>
	<path class="st2" d="M6.3,5.2"/>
	<line class="st2" x1="17.7" y1="6" x2="6.3" y2="6"/>
	<path class="st2" d="M17.7,4.1"/>
	<polyline class="st2" points="1,5.1 1,3 23,3 23,5.1 	"/>
	<path class="st2" d="M21,21H3v-4c0-1.6,1.3-3,3-3h12c1.6,0,3,1.4,3,3V21z"/>
	<path class="st2" d="M23,5v2c0,1.1-0.9,2-2,2h-1.3c-1.1,0-2-0.9-2-2V5"/>
</g>
</svg>
