<?xml version="1.0" encoding="utf-8"?>
<!-- Generator: Adobe Illustrator 21.0.0, SVG Export Plug-In . SVG Version: 6.00 Build 0)  -->
<svg version="1.1" id="图层_1" xmlns="http://www.w3.org/2000/svg" xmlns:xlink="http://www.w3.org/1999/xlink" x="0px" y="0px"
	 viewBox="0 0 24 24" style="enable-background:new 0 0 24 24;" xml:space="preserve">
<style type="text/css">
	.st0{fill:none;}
	.st1{fill:#A8ACC1;}
	.st2{fill:none;stroke:#A8ACC1;stroke-miterlimit:10;}
</style>
<rect id="_x3C_切片_x3E_" x="-1" class="st0" width="25" height="24"/>
<g>
	<path class="st1" d="M6,8L6,8C5.6,8,5.2,7.6,5.2,7.2V3h1.6v4.2C6.8,7.6,6.4,8,6,8z"/>
	<path class="st2" d="M23,21H1V6c0-1.7,1.3-3,3-3h16c1.6,0,3,1.3,3,3V21z"/>
	<path class="st1" d="M17.7,11.1H6.3c-0.2,0-0.3-0.2-0.3-0.3v-0.3c0-0.2,0.2-0.3,0.3-0.3h11.3c0.2,0,0.3,0.2,0.3,0.3v0.3
		C18,10.9,17.8,11.1,17.7,11.1z"/>
	<path class="st1" d="M17.7,14.1H6.3c-0.2,0-0.3-0.2-0.3-0.3v-0.3c0-0.2,0.2-0.3,0.3-0.3h11.3c0.2,0,0.3,0.2,0.3,0.3v0.3
		C18,13.9,17.8,14.1,17.7,14.1z"/>
	<path class="st1" d="M17.7,17.1H6.3c-0.2,0-0.3-0.2-0.3-0.3v-0.3c0-0.2,0.2-0.3,0.3-0.3h11.3c0.2,0,0.3,0.2,0.3,0.3v0.3
		C18,16.9,17.8,17.1,17.7,17.1z"/>
</g>
</svg>
