<?xml version="1.0" encoding="utf-8"?>
<!-- Generator: Adobe Illustrator 21.0.0, SVG Export Plug-In . SVG Version: 6.00 Build 0)  -->
<svg version="1.1" id="图层_1" xmlns="http://www.w3.org/2000/svg" xmlns:xlink="http://www.w3.org/1999/xlink" x="0px" y="0px"
	 viewBox="0 0 24 24" style="enable-background:new 0 0 24 24;" xml:space="preserve">
<style type="text/css">
	.st0{fill:none;}
	.st1{fill:#A8ACC1;}
	.st2{fill:none;stroke:#A8ACC1;stroke-miterlimit:10;}
</style>
<rect id="_x3C_切片_x3E_" x="-1" class="st0" width="25" height="24"/>
<g>
	<path class="st1" d="M12.6,13L12.6,13c0,0.4-0.4,0.8-0.8,0.8H2.6v-1.6h9.2C12.2,12.2,12.6,12.6,12.6,13z"/>
	<g>
		<path class="st1" d="M6.8,18.1L6.8,18.1c-0.3,0.3-0.8,0.3-1.1,0L0.5,13l1.1-1.1L6.8,17C7.1,17.3,7.1,17.8,6.8,18.1z"/>
		<path class="st1" d="M6.8,7.9L6.8,7.9c0.3,0.3,0.3,0.8,0,1.1l-5.1,5.1L0.6,13l5.1-5.1C6,7.6,6.5,7.6,6.8,7.9z"/>
	</g>
	<path class="st2" d="M1.1,4"/>
	<path class="st2" d="M1.1,4h19c1.7,0,3,1.3,3,3v12c0,1.6-1.3,3-3,3h-19"/>
</g>
</svg>
