<?xml version="1.0" encoding="utf-8"?>
<!-- Generator: Adobe Illustrator 21.0.0, SVG Export Plug-In . SVG Version: 6.00 Build 0)  -->
<svg version="1.1" id="图层_1" xmlns="http://www.w3.org/2000/svg" xmlns:xlink="http://www.w3.org/1999/xlink" x="0px" y="0px"
	 viewBox="0 0 24 24" style="enable-background:new 0 0 24 24;" xml:space="preserve">
<style type="text/css">
	.st0{fill:none;}
	.st1{fill:#A8ACC1;}
	.st2{fill:none;stroke:#A8ACC1;stroke-miterlimit:10;}
</style>
<rect id="_x3C_切片_x3E_" x="-1" class="st0" width="25" height="24"/>
<g>
	<path class="st1" d="M4,19L4,19c-0.4,0-0.8-0.4-0.8-0.8l0-3.2h1.6l0,3.2C4.8,18.6,4.4,19,4,19z"/>
	<path class="st1" d="M7,19L7,19c-0.4,0-0.8-0.4-0.8-0.8l0-3.2h1.6l0,3.2C7.8,18.6,7.4,19,7,19z"/>
	<path class="st1" d="M10,19L10,19c-0.4,0-0.8-0.4-0.8-0.8l0-3.2h1.6l0,3.2C10.8,18.6,10.4,19,10,19z"/>
	<path class="st2" d="M23,21H1V6c0-1.7,1.3-3,3-3h16c1.6,0,3,1.3,3,3V21z"/>
	<rect x="1" y="8.3" class="st1" width="22" height="2"/>
</g>
</svg>
