<?xml version="1.0" encoding="utf-8"?>
<!-- Generator: Adobe Illustrator 21.0.0, SVG Export Plug-In . SVG Version: 6.00 Build 0)  -->
<svg version="1.1" id="图层_1" xmlns="http://www.w3.org/2000/svg" xmlns:xlink="http://www.w3.org/1999/xlink" x="0px" y="0px"
	 viewBox="0 0 24 24" style="enable-background:new 0 0 24 24;" xml:space="preserve">
<style type="text/css">
	.st0{fill:none;}
	.st1{fill:none;stroke:#A8ACC1;stroke-miterlimit:10;}
	.st2{fill:#A8ACC1;}
</style>
<rect id="_x3C_切片_x3E_" x="-1" class="st0" width="25" height="24"/>
<g>
	<path class="st1" d="M20,21H4c-1.7,0-3-1.3-3-3V8h22v10C23,19.7,21.7,21,20,21z"/>
	<path class="st1" d="M18,8H6V5c0-1.1,0.9-2,2-2h8c1.1,0,2,0.9,2,2V8z"/>
	<line class="st1" x1="1.5" y1="12" x2="22.5" y2="12"/>
	<path class="st2" d="M12,16L12,16c-0.4,0-0.8-0.4-0.8-0.8V12h1.6v3.2C12.8,15.6,12.4,16,12,16z"/>
</g>
</svg>
