<?xml version="1.0" encoding="utf-8"?>
<!-- Generator: Adobe Illustrator 21.0.0, SVG Export Plug-In . SVG Version: 6.00 Build 0)  -->
<svg version="1.1" id="图层_1" xmlns="http://www.w3.org/2000/svg" xmlns:xlink="http://www.w3.org/1999/xlink" x="0px" y="0px"
	 viewBox="0 0 24 24" style="enable-background:new 0 0 24 24;" xml:space="preserve">
<style type="text/css">
	.st0{fill:none;}
	.st1{fill:#A8ACC1;}
	.st2{fill:none;stroke:#A8ACC1;stroke-miterlimit:10;}
</style>
<rect id="_x3C_切片_x3E_" x="-1" class="st0" width="25" height="24"/>
<g>
	<path class="st1" d="M4.2,15.3L4.2,15.3c-0.3-0.3-0.3-0.8,0-1.1l3.7-3.7L9,11.6l-3.7,3.7C5,15.6,4.5,15.6,4.2,15.3z"/>
	<path class="st1" d="M19.8,8.7L19.8,8.7c0.3,0.3,0.3,0.8,0,1.1l-3.7,3.7L15,12.4l3.7-3.7C19,8.4,19.5,8.4,19.8,8.7z"/>
	<path class="st2" d="M20,21H1V6c0-1.7,1.3-3,3-3h19v15C23,19.6,21.6,21,20,21z"/>
	<rect x="8" y="11.2" transform="matrix(0.7071 0.7071 -0.7071 0.7071 12.0011 -4.9717)" class="st1" width="8" height="1.6"/>
	<rect id="_x3C_切片_x3E__3_" class="st0" width="25" height="24"/>
</g>
</svg>
