<?xml version="1.0" encoding="utf-8"?>
<!-- Generator: Adobe Illustrator 21.0.0, SVG Export Plug-In . SVG Version: 6.00 Build 0)  -->
<svg version="1.1" id="图层_1" xmlns="http://www.w3.org/2000/svg" xmlns:xlink="http://www.w3.org/1999/xlink" x="0px" y="0px"
	 viewBox="0 0 24 24" style="enable-background:new 0 0 24 24;" xml:space="preserve">
<style type="text/css">
	.st0{fill:none;}
	.st1{fill:#A8ACC1;}
	.st2{fill:none;stroke:#A8ACC1;stroke-miterlimit:10;}
</style>
<rect id="_x3C_切片_x3E_" x="-1" class="st0" width="25" height="24"/>
<g>
	<path class="st1" d="M7.8,10L7.8,10c0.4,0,0.8,0.4,0.8,0.8l0,4.2H7l0-4.2C7,10.4,7.4,10,7.8,10z"/>
	<path class="st1" d="M12,6.4L12,6.4c0.4,0,0.8,0.4,0.8,0.8l0,7.8l-1.6,0l0-7.8C11.2,6.8,11.6,6.4,12,6.4z"/>
	<path class="st1" d="M16.2,8L16.2,8C16.6,8,17,8.4,17,8.8l0,6.2l-1.6,0l0-6.2C15.4,8.4,15.7,8,16.2,8z"/>
	<path class="st2" d="M23,17.8H1V6.2c0-1.7,1.3-3,3-3h16c1.6,0,3,1.3,3,3V17.8z"/>
	<path class="st1" d="M22.2,21.4H1.8C1.4,21.4,1,21,1,20.6v0c0-0.4,0.4-0.8,0.8-0.8h20.4c0.4,0,0.8,0.4,0.8,0.8v0
		C23,21,22.6,21.4,22.2,21.4z"/>
</g>
</svg>
