<?xml version="1.0" encoding="utf-8"?>
<!-- Generator: Adobe Illustrator 21.0.0, SVG Export Plug-In . SVG Version: 6.00 Build 0)  -->
<svg version="1.1" id="图层_1" xmlns="http://www.w3.org/2000/svg" xmlns:xlink="http://www.w3.org/1999/xlink" x="0px" y="0px"
	 viewBox="0 0 24 24" style="enable-background:new 0 0 24 24;" xml:space="preserve">
<style type="text/css">
	.st0{fill:none;}
	.st1{fill:none;stroke:#A8ACC1;stroke-miterlimit:10;}
	.st2{fill:#A8ACC1;}
</style>
<rect id="_x3C_切片_x3E_" x="-1" class="st0" width="25" height="24"/>
<path class="st1" d="M23,17.8H1V6.3c0-1.6,1.3-3,3-3h16c1.6,0,3,1.4,3,3V17.8z"/>
<path class="st2" d="M22.2,21.4H1.8C1.4,21.4,1,21,1,20.6v0c0-0.4,0.4-0.8,0.8-0.8h20.4c0.4,0,0.8,0.4,0.8,0.8v0
	C23,21,22.6,21.4,22.2,21.4z"/>
<g>
	<path class="st2" d="M7.5,10.5L7.5,10.5c0-0.2,0.2-0.4,0.4-0.4h1.2l0,0.8H7.9C7.7,10.9,7.5,10.7,7.5,10.5z"/>
	<path class="st2" d="M16.5,10.5L16.5,10.5c0,0.2-0.2,0.4-0.4,0.4h-1.2l0-0.8h1.2C16.3,10.1,16.5,10.3,16.5,10.5z"/>
	<path class="st2" d="M12,6L12,6c0.2,0,0.4,0.2,0.4,0.4v1.2l-0.8,0V6.4C11.6,6.2,11.8,6,12,6z"/>
	<path class="st2" d="M12,15L12,15c-0.2,0-0.4-0.2-0.4-0.4v-1.2l0.8,0v1.2C12.4,14.8,12.2,15,12,15z"/>
	<path class="st2" d="M8.8,7.3L8.8,7.3c0.2-0.2,0.4-0.2,0.6,0l0.9,0.9L9.7,8.8L8.8,7.9C8.7,7.7,8.7,7.5,8.8,7.3z"/>
	<path class="st2" d="M15.2,13.7L15.2,13.7c-0.2,0.2-0.4,0.2-0.6,0l-0.9-0.9l0.6-0.6l0.9,0.9C15.3,13.3,15.3,13.5,15.2,13.7z"/>
	<path class="st2" d="M8.8,13.7L8.8,13.7c-0.2-0.2-0.2-0.4,0-0.6l0.9-0.9l0.6,0.6l-0.9,0.9C9.2,13.8,9,13.8,8.8,13.7z"/>
	<path class="st2" d="M15.2,7.3L15.2,7.3c0.2,0.2,0.2,0.4,0,0.6l-0.9,0.9l-0.6-0.6l0.9-0.9C14.8,7.2,15,7.2,15.2,7.3z"/>
	<circle class="st1" cx="12" cy="10.5" r="2.5"/>
</g>
</svg>
