<?xml version="1.0" encoding="utf-8"?>
<!-- Generator: Adobe Illustrator 21.0.0, SVG Export Plug-In . SVG Version: 6.00 Build 0)  -->
<svg version="1.1" id="图层_1" xmlns="http://www.w3.org/2000/svg" xmlns:xlink="http://www.w3.org/1999/xlink" x="0px" y="0px"
	 viewBox="0 0 32 32" style="enable-background:new 0 0 32 32;" xml:space="preserve">
<style type="text/css">
	.st0{fill:#FFFFFF;}
</style>
<path class="st0" d="M16.1,0C9.7,0,4.3,4.4,2.5,10.5c-1.6,0.9-2.5,2.7-2.5,4.8c0,3.1,1.9,5.5,4.9,5.5c0.7,0,1.2-0.6,1.2-1.2V11
	c0-0.6-0.4-1-0.9-1.2c1.8-4.4,5.9-7.5,10.8-7.5s9,3.1,10.8,7.5c-0.5,0.1-0.9,0.6-0.9,1.2v8.6c0,0.7,0.6,1.2,1.2,1.2
	c0.3,0,0.5,0,0.8-0.1c-0.4,2.3-1.4,4-2.3,5.2c-0.6,0.7-1.2,1.3-1.7,1.6c-0.2,0.2-0.4,0.3-0.6,0.3c-0.1,0-0.1,0.1-0.2,0.1h-2.3
	c-0.4-1.3-1.9-2.2-3.5-2.2c-2,0-3.7,1.4-3.7,3.1c0,1.7,1.7,3.1,3.7,3.1c1.7,0,3.1-0.9,3.5-2.2h2.4c0.4,0,0.5-0.1,0.8-0.2
	c0.2-0.1,0.5-0.3,0.8-0.5c0.6-0.4,1.4-1.1,2.1-1.9c1.3-1.6,2.5-3.9,2.8-7c1.5-1,2.3-2.7,2.3-4.7c0-2.1-0.9-3.9-2.5-4.8
	C27.9,4.4,22.5,0,16.1,0z"/>
</svg>
