<?xml version="1.0" encoding="utf-8"?>
<!-- Generator: Adobe Illustrator 21.0.0, SVG Export Plug-In . SVG Version: 6.00 Build 0)  -->
<svg version="1.1" id="图层_1" xmlns="http://www.w3.org/2000/svg" xmlns:xlink="http://www.w3.org/1999/xlink" x="0px" y="0px"
	 viewBox="0 0 32 32" style="enable-background:new 0 0 32 32;" xml:space="preserve">
<style type="text/css">
	.st0{fill:#FFFFFF;}
</style>
<g>
	<path class="st0" d="M1.9,7.6h28.3c1,0,1.8-0.9,1.8-2s-0.8-2-1.8-2l-28.3,0c-1,0-1.8,0.9-1.8,2S0.9,7.6,1.9,7.6z"/>
	<path class="st0" d="M30.2,14H1.9c-1,0-1.8,0.9-1.8,2s0.8,2,1.8,2h28.3c1,0,1.8-0.9,1.8-2S31.2,14,30.2,14z"/>
	<path class="st0" d="M30.2,24.4H1.9c-1,0-1.8,0.9-1.8,2c0,1.1,0.8,2,1.8,2h28.3c1,0,1.8-0.9,1.8-2C32,25.3,31.2,24.4,30.2,24.4z"/>
</g>
</svg>
