<?xml version="1.0" encoding="utf-8"?>
<!-- Generator: Adobe Illustrator 21.0.0, SVG Export Plug-In . SVG Version: 6.00 Build 0)  -->
<svg version="1.1" id="图层_1" xmlns="http://www.w3.org/2000/svg" xmlns:xlink="http://www.w3.org/1999/xlink" x="0px" y="0px"
	 viewBox="0 0 32 32" style="enable-background:new 0 0 32 32;" xml:space="preserve">
<style type="text/css">
	.st0{fill:#FFFFFF;}
</style>
<path class="st0" d="M30.1,24c0.7,0,1.3-0.6,1.3-1.3v-8.4c0-1-0.4-2-1.2-2.8L18.6,1.7c-1.5-1.5-4-1.5-5.4-0.1L1.4,11.5
	c-0.7,0.7-1.1,1.7-1.1,2.8v13.8C0.2,30.2,2,32,4.1,32h23.4c1.2,0,2.4-0.6,3.2-1.6c0.5-0.7,0.8-1.5,0.8-2.3c0-0.7-0.6-1.3-1.3-1.3
	c-0.6,0-1.2,0.5-1.3,1.1l-10.5-6.3l10.5-6.3v7.4C28.8,23.4,29.4,24,30.1,24z M2.8,27.8V15.3l10.5,6.3L2.8,27.8z M26.3,29.4h-21
	l10.5-6.3L26.3,29.4z M3.8,12.8l11.1-9.3C15.4,3,16.2,3,16.8,3.6l11,9.3l-12,7.2L3.8,12.8z"/>
<rect x="28.8" y="21.2" class="st0" width="2.6" height="6.8"/>
</svg>
