<?xml version="1.0" encoding="utf-8"?>
<!-- Generator: Adobe Illustrator 21.0.0, SVG Export Plug-In . SVG Version: 6.00 Build 0)  -->
<svg version="1.1" id="图层_1" xmlns="http://www.w3.org/2000/svg" xmlns:xlink="http://www.w3.org/1999/xlink" x="0px" y="0px"
	 viewBox="0 0 32 32" style="enable-background:new 0 0 32 32;" xml:space="preserve">
<style type="text/css">
	.st0{fill:#FFFFFF;}
</style>
<path class="st0" d="M22.4,6.7C18.1,2.3,11,2.3,6.7,6.7s-4.3,11.4,0,15.7c4.3,4.3,11.4,4.3,15.7,0c0,0,0,0,0,0
	C26.7,18.1,26.7,11,22.4,6.7C22.4,6.7,22.4,6.7,22.4,6.7z M4.3,24.8c-5.7-5.7-5.7-14.9,0-20.6s14.9-5.7,20.6,0s5.7,14.9,0,20.6
	c0,0,0,0,0,0C19.1,30.5,9.9,30.5,4.3,24.8z M31.4,31.4c-0.8,0.8-2,0.8-2.8,0c0,0,0,0,0,0l-2.8-2.8c-0.8-0.8-0.8-2,0-2.8s2-0.8,2.8,0
	l2.8,2.8C32.2,29.4,32.2,30.6,31.4,31.4C31.4,31.4,31.4,31.4,31.4,31.4z"/>
</svg>
