<?xml version="1.0" encoding="utf-8"?>
<!-- Generator: Adobe Illustrator 21.0.0, SVG Export Plug-In . SVG Version: 6.00 Build 0)  -->
<svg version="1.1" id="图层_1" xmlns="http://www.w3.org/2000/svg" xmlns:xlink="http://www.w3.org/1999/xlink" x="0px" y="0px"
	 viewBox="0 0 32 32" style="enable-background:new 0 0 32 32;" xml:space="preserve">
<style type="text/css">
	.st0{fill:#FFFFFF;}
</style>
<path class="st0" d="M15.9,22.5c-3.5,0-6.4-3-6.4-6.7c0-3.7,2.9-6.7,6.4-6.7s6.4,3,6.4,6.7C22.3,19.5,19.4,22.5,15.9,22.5z
	 M15.9,11.3c-2.4,0-4.3,2-4.3,4.4c0,2.4,1.9,4.4,4.3,4.4c2.4,0,4.3-2,4.3-4.4C20.1,13.3,18.2,11.3,15.9,11.3z M11.7,32
	C11.7,32,11.7,32,11.7,32c-0.1,0-0.2,0-0.3,0l0,0l0,0C9,31.2,6.8,29.9,5,28.1l0,0l0,0c0,0,0,0-0.1-0.1l0,0c0,0,0-0.1-0.1-0.1l0,0
	c0,0,0-0.1,0-0.1l0,0c0,0,0-0.1,0-0.1l0,0c0,0,0-0.1,0-0.1c0,0,0,0,0,0c0,0,0-0.1,0-0.1l0,0c0,0,0-0.1,0-0.1c0,0,0,0,0,0
	c0,0,0-0.1,0-0.1v0c0,0,0-0.1,0-0.1l0,0c0,0,0-0.1,0-0.1c0,0,0-0.1,0-0.1l0,0c0,0,0-0.1,0-0.1l0,0c0,0,0,0,0,0c0,0,0-0.1,0-0.1
	c0,0,0,0,0,0c0,0,0-0.1,0-0.1c0,0,0,0,0,0l0,0c0,0,0,0,0,0c0.4-0.6,0.6-1.4,0.6-2.1c0-2.1-1.7-3.8-3.7-3.8c-0.1,0-0.1,0-0.2,0l0,0
	c0,0,0,0-0.1,0c0,0,0,0,0,0h0c0,0,0,0,0,0c0,0,0,0,0,0c0,0,0,0,0,0l0-0.1l0,0.1l0,0c0,0,0,0,0,0c0,0,0,0,0,0c0,0,0,0,0,0l0,0
	c0,0,0,0,0,0c0,0,0,0,0,0c0,0,0,0,0,0l0,0c0,0,0,0,0,0c0,0,0,0,0,0c0,0,0,0,0,0l0,0c0,0,0,0,0,0l0,0c0,0,0,0,0,0c0,0,0,0,0,0
	c0,0,0,0,0,0l0,0c0,0,0,0,0,0c0,0,0,0,0,0l0,0c0,0,0,0,0,0c0,0,0,0,0,0c0,0,0,0,0,0l0,0c0,0,0,0,0,0c0,0,0,0,0,0c0,0,0,0,0,0
	c0,0,0,0,0,0c0,0,0,0,0,0l0.1-0.1l-0.1,0.1c0,0,0,0,0,0c0,0,0,0,0,0l0,0c0,0,0,0,0,0c0,0,0,0,0,0c0,0,0,0,0,0l0,0c0,0,0,0,0,0
	c0,0,0,0,0,0l0,0l0,0c0,0,0,0,0,0c0,0,0,0,0,0c0,0,0,0,0,0l0,0c0,0,0,0,0,0c0,0,0,0,0,0c0,0,0,0,0,0c0,0,0,0,0,0l0,0c0,0,0,0,0,0
	c0,0,0,0,0,0c0,0,0,0,0,0C0.1,18.6,0,17.3,0,16s0.1-2.6,0.4-3.8c0,0,0,0,0,0c0,0,0,0,0,0c0,0,0,0,0,0c0,0,0,0,0,0c0,0,0,0,0,0
	c0,0,0,0,0,0l0,0c0,0,0,0,0,0c0,0,0,0,0,0c0,0,0,0,0,0l0,0l0,0c0,0,0,0,0,0c0,0,0,0,0,0l0,0l0,0l0,0c0,0,0,0,0,0c0,0,0,0,0,0
	c0,0,0,0,0,0c0,0,0,0,0,0l0,0c0,0,0,0,0,0c0,0,0,0,0,0l0,0c0,0,0,0,0,0c0,0,0,0,0,0l0,0l0,0c0,0,0,0,0,0c0,0,0,0,0,0c0,0,0,0,0,0
	c0,0,0,0,0,0c0,0,0,0,0,0c0,0,0,0,0,0c0,0,0,0,0,0l0,0c0,0,0,0,0,0l0,0c0,0,0,0,0,0l0,0c0,0,0,0,0,0l0,0c0,0,0,0,0,0l0,0
	c0,0,0,0,0,0c0,0,0,0,0,0c0,0,0,0,0,0l0,0l0,0c0,0,0,0,0,0l0,0c0,0,0,0,0,0l0,0c0,0,0,0,0,0c0,0,0,0,0,0c0,0,0,0,0,0h0c0,0,0,0,0,0
	c0,0,0,0,0,0c0.1,0,0.1,0,0.2,0c2,0,3.7-1.7,3.7-3.8c0-0.8-0.2-1.5-0.6-2.1c0,0,0,0,0,0l0,0c0,0,0-0.1,0-0.1l0,0c0,0,0-0.1,0-0.1
	c0,0,0,0,0,0c0,0,0-0.1,0-0.1l0,0c0,0,0-0.1,0-0.1l0,0l0,0c0,0,0-0.1,0-0.1l0,0c0,0,0-0.1,0-0.1l0,0c0,0,0-0.1,0-0.1c0,0,0,0,0,0
	c0,0,0-0.1,0-0.1l0,0c0,0,0-0.1,0-0.1c0,0,0,0,0,0c0,0,0-0.1,0-0.1l0,0c0,0,0-0.1,0-0.1c0,0,0,0,0,0c0,0,0-0.1,0-0.1c0,0,0,0,0,0
	c0,0,0-0.1,0.1-0.1l0,0c0,0,0-0.1,0.1-0.1l0,0C6.8,2.1,9,0.8,11.4,0l0,0h0c0.1,0,0.2,0,0.3,0c0,0,0,0,0,0c0.1,0,0.2,0,0.3,0
	c0,0,0,0,0,0c0,0,0,0,0,0l0,0c0,0,0,0,0,0c0,0,0,0,0,0c0,0,0,0,0,0c0,0,0,0,0,0c0,0,0,0,0,0l0,0c0.1,0.1,0.3,0.2,0.4,0.3
	c0,0.1,0.1,0.1,0.1,0.2l0,0l0,0C13.3,2,14.6,2.8,16,2.8c1.4,0,2.7-0.9,3.3-2.2c0-0.1,0.1-0.2,0.2-0.3c0.1-0.1,0.2-0.2,0.3-0.2l0,0h0
	c0,0,0,0,0,0c0,0,0,0,0,0l0,0l0,0c0,0,0,0,0,0l0,0c0,0,0,0,0,0C20,0,20.2,0,20.3,0c0,0,0,0,0,0c0.1,0,0.2,0,0.3,0l0,0l0,0
	C23,0.8,25.2,2.2,27,4h0.1l0,0.1c0,0,0,0,0,0l0,0l0,0c0,0,0,0,0.1,0.1l0,0c0,0,0,0.1,0.1,0.1l0,0c0,0,0,0.1,0,0.1l0,0
	c0,0,0,0.1,0,0.1l0,0c0,0,0,0.1,0,0.1c0,0,0,0,0,0c0,0,0,0.1,0,0.1c0,0,0,0,0,0c0,0.1,0,0.3,0,0.4v0l0,0c0,0,0,0.1,0,0.1l0,0l0,0
	c0,0,0,0.1,0,0.1c0,0,0,0,0,0c0,0,0,0.1,0,0.1c0,0,0,0,0,0l0,0c-0.4,0.6-0.6,1.3-0.6,2.1c0,2.1,1.7,3.8,3.7,3.8c0.1,0,0.1,0,0.2,0
	l0,0c0,0,0,0,0,0c0,0,0.1,0,0.1,0l0,0c0,0,0,0,0,0c0,0,0,0,0,0c0,0,0,0,0,0l0,0c0,0,0,0,0,0l0,0c0,0,0,0,0,0l0,0c0,0,0,0,0,0l0,0
	c0,0,0,0,0,0l0,0c0,0,0,0,0,0l0,0l0,0c0,0,0,0,0,0l0,0l0,0c0,0,0,0,0,0l0,0c0,0,0,0,0,0c0,0,0,0,0,0c0,0,0,0,0,0c0,0,0,0,0,0l0,0
	c0,0,0,0,0,0l0,0c0.1,0.1,0.1,0.1,0.2,0.2l0,0l0,0c0,0,0,0,0,0l0,0l0,0c0,0,0,0,0,0c0,0,0,0,0,0c0,0,0,0,0,0l0,0l0,0l0,0
	c0,0,0,0,0,0l0,0l0,0c0,0.1,0,0.1,0,0.2c0.3,1.2,0.4,2.5,0.4,3.8c0,1.3-0.1,2.6-0.4,3.8c0,0.1,0,0.1,0,0.2l0,0l0,0c0,0,0,0,0,0l0,0
	l0,0c0,0,0,0,0,0c0,0,0,0,0,0c0,0,0,0,0,0l0,0c0,0,0,0,0,0l0,0c0,0,0,0,0,0l0,0c0,0,0,0,0,0l0,0l0,0c0,0-0.1,0.1-0.1,0.1
	c0,0,0,0,0,0l0,0l0,0l0,0c0,0,0,0,0,0c0,0,0,0,0,0l0,0c0,0,0,0,0,0c0,0,0,0,0,0l0,0c0,0,0,0,0,0c0,0,0,0,0,0l0,0l0,0
	c-0.1,0-0.1,0.1-0.2,0.1l0,0c0,0,0,0,0,0l0,0c0,0,0,0,0,0l0,0c0,0,0,0,0,0c0,0,0,0,0,0c0,0,0,0,0,0l0,0l0-0.1l0,0.1c0,0,0,0,0,0l0,0
	c0,0,0,0,0,0h0c0,0,0,0-0.1,0c0,0,0,0,0,0c0,0,0,0-0.1,0h0c0,0-0.1,0-0.2,0c-2,0-3.7,1.7-3.7,3.8c0,0.7,0.2,1.5,0.6,2.1l0,0
	c0,0,0,0,0,0l0,0c0,0,0,0.1,0,0.1l0,0c0,0,0,0.1,0,0.1c0,0,0,0,0,0c0,0,0,0.1,0,0.1l0,0c0,0,0,0.1,0,0.1l0,0c0,0.1,0,0.1,0,0.2l0,0
	c0,0,0,0.1,0,0.1c0,0,0,0,0,0c0,0,0,0.1,0,0.1l0,0c0,0,0,0.1,0,0.1c0,0,0,0,0,0c0,0,0,0.1,0,0.1l0,0c0,0,0,0.1,0,0.1l0,0
	c0,0,0,0.1,0,0.1l0,0c0,0,0,0.1-0.1,0.1l0,0c0,0,0,0-0.1,0.1l0,0l0,0c-1.8,1.8-4.1,3.2-6.5,3.9c-0.1,0-0.2,0-0.3,0h0c0,0,0,0,0,0
	c0,0,0,0,0,0c0,0,0,0,0,0l0,0l0,0c0,0-0.1,0-0.1,0h0l0,0c0,0,0,0,0,0l0,0c0,0,0,0,0,0c0,0,0,0,0,0c0,0,0,0,0,0c0,0,0,0,0,0
	c0,0,0,0,0,0c0,0,0,0,0,0c0,0,0,0,0,0c-0.1-0.1-0.3-0.2-0.4-0.3c-0.1-0.1-0.1-0.2-0.1-0.2c-0.6-1.3-1.9-2.2-3.3-2.2
	c-1.4,0-2.7,0.9-3.3,2.2v0l0,0c0,0.1-0.1,0.1-0.1,0.2c-0.1,0.1-0.2,0.2-0.4,0.3l0,0c0,0,0,0,0,0c0,0,0,0,0,0s0,0,0,0l0-0.1l0,0.1
	c0,0,0,0,0,0c0,0,0,0,0,0l0,0l0,0C11.9,32,11.8,32,11.7,32z M16,26.7c1.9,0,3.6,1,4.7,2.6c1.5-0.6,2.9-1.4,4.1-2.5
	c-0.3-0.8-0.5-1.6-0.5-2.4c0-1.5,0.5-2.9,1.5-4c0.9-1.1,2.2-1.7,3.5-1.9c0.1-0.8,0.2-1.6,0.2-2.4c0-0.8-0.1-1.6-0.2-2.4
	c-1.4-0.2-2.6-0.8-3.6-1.9c-1-1.1-1.5-2.5-1.5-4c0-0.8,0.2-1.6,0.5-2.4c-1.2-1.1-2.6-1.9-4.1-2.5c-1.1,1.6-2.8,2.6-4.7,2.6
	c-1.9,0-3.6-1-4.7-2.6C9.8,3.4,8.5,4.2,7.2,5.3C7.6,6,7.7,6.8,7.7,7.7c0,1.5-0.5,2.9-1.5,4c-0.9,1.1-2.2,1.7-3.6,1.9
	c-0.1,0.8-0.2,1.6-0.2,2.4c0,0.8,0.1,1.6,0.2,2.4c1.4,0.2,2.7,0.8,3.6,1.9c1,1.1,1.5,2.5,1.5,4c0,0.9-0.2,1.7-0.5,2.4
	c1.2,1.1,2.6,1.9,4.1,2.5C12.4,27.6,14.1,26.7,16,26.7z"/>
</svg>
