<?xml version="1.0" encoding="utf-8"?>
<!-- Generator: Adobe Illustrator 21.0.0, SVG Export Plug-In . SVG Version: 6.00 Build 0)  -->
<svg version="1.1" id="图层_1" xmlns="http://www.w3.org/2000/svg" xmlns:xlink="http://www.w3.org/1999/xlink" x="0px" y="0px"
	 viewBox="0 0 24 24" style="enable-background:new 0 0 24 24;" xml:space="preserve">
<style type="text/css">
	.st0{fill:#539166;}
	.st1{fill:#404040;}
	.st2{fill:#FFFFFF;}
</style>
<path class="st0" d="M0,2.8v18.5c4.6,0.9,8.8,1.8,13.4,2.6V0.1C8.8,1,4.6,1.9,0,2.8z"/>
<path class="st1" d="M14.6,20.5c0,0,0-1.6,0-2.5h2.6v-1.7h-2.6v-1.7h2.6v-1.7h-2.6v-1.7h2.6V9.5h-2.6V7.8h2.6V6.1h-2.6V3.4H24v17
	L14.6,20.5L14.6,20.5z M22,6.1h-3.9c0,0,0,1.7,0,1.7c1.1,0,2.8,0,3.9,0 M22,11.2V9.5c-1.2,0-2.8,0-3.9,0v1.7 M22,12.9h-3.9v1.7H22
	V12.9z M18.1,17.9C18.1,17.9,18.1,17.9,18.1,17.9c1.1,0,2.2,0,3.3,0c0.1,0,0.6-0.1,0.6-0.2c0-0.4,0-0.9,0-1.3c0-0.2-0.5-0.2-0.7-0.2
	c-1,0-2,0-3,0c-0.1,0-0.1,0-0.2,0C18.1,16.8,18.1,17.4,18.1,17.9z"/>
<path class="st2" d="M10.3,16.3c-0.6,0-1.1,0-1.7,0c-0.1,0-0.2,0-0.3-0.2L7,13.6c-0.1-0.2-0.1-0.4-0.2-0.5c-0.5,1-1.1,2-1.7,3.1
	c0,0.1-0.1,0.1-0.2,0.1c-0.7,0-1.5,0-2.2,0c0.1-0.1,0.1-0.2,0.2-0.2c0.8-1.3,1.7-2.6,2.5-3.8c0.1-0.1,0.1-0.3,0-0.4
	C4.6,10.5,3.8,9.3,3.1,8C3,7.9,2.9,7.8,2.9,7.7h0.9c0.4,0,0.9,0,1.3,0c0.1,0,0.2,0.1,0.3,0.1c0.4,0.9,0.9,1.8,1.3,2.7
	c0.1,0.1,0.1,0.3,0.2,0.4c0,0,0.1-0.1,0.1-0.1c0.5-1,1-2,1.5-3c0-0.1,0.1-0.1,0.2-0.1c0.7,0,1.4,0,2.1,0c-0.1,0.1-0.1,0.2-0.1,0.3
	C9.8,9.2,9,10.5,8.2,11.8c-0.1,0.2-0.1,0.3,0,0.4c0.8,1.3,1.6,2.6,2.4,3.9c0,0.1,0.1,0.2,0.2,0.3L10.3,16.3
	C10.3,16.3,10.3,16.3,10.3,16.3z"/>
</svg>
