<?xml version="1.0" encoding="utf-8"?>
<!-- Generator: Adobe Illustrator 21.0.0, SVG Export Plug-In . SVG Version: 6.00 Build 0)  -->
<svg version="1.1" id="图层_1" xmlns="http://www.w3.org/2000/svg" xmlns:xlink="http://www.w3.org/1999/xlink" x="0px" y="0px"
	 viewBox="0 0 24 24" style="enable-background:new 0 0 24 24;" xml:space="preserve">
<style type="text/css">
	.st0{fill:#2199DB;}
	.st1{fill:#FFFFFF;}
</style>
<rect x="0" class="st0" width="24" height="24"/>
<path class="st1" d="M20,18.4H8.4c-0.5,0-1-0.4-1-1v-0.6c0-0.5,0.4-1,1-1H20c0.5,0,1,0.4,1,1v0.6C21,18,20.6,18.4,20,18.4z M20,13.3
	H8.4c-0.5,0-1-0.4-1-1v-0.6c0-0.5,0.4-1,1-1H20c0.5,0,1,0.4,1,1v0.6C21,12.9,20.6,13.3,20,13.3z M20,8.1H8.4c-0.5,0-1-0.4-1-1V6.5
	c0-0.5,0.4-1,1-1H20c0.5,0,1,0.4,1,1v0.6C21,7.7,20.6,8.1,20,8.1L20,8.1z M4.3,18.4c-0.7,0-1.3-0.6-1.3-1.3c0-0.7,0.6-1.3,1.3-1.3
	c0.7,0,1.3,0.6,1.3,1.3C5.6,17.9,5,18.4,4.3,18.4L4.3,18.4z M4.3,13.3C3.6,13.3,3,12.7,3,12c0-0.7,0.6-1.3,1.3-1.3
	c0.7,0,1.3,0.6,1.3,1.3C5.6,12.7,5,13.3,4.3,13.3L4.3,13.3z M4.3,8.1C3.6,8.1,3,7.6,3,6.9c0-0.7,0.6-1.3,1.3-1.3
	c0.7,0,1.3,0.6,1.3,1.3C5.6,7.6,5,8.1,4.3,8.1L4.3,8.1z"/>
</svg>
