<?xml version="1.0" encoding="utf-8"?>
<!-- Generator: Adobe Illustrator 21.0.0, SVG Export Plug-In . SVG Version: 6.00 Build 0)  -->
<svg version="1.1" id="图层_1" xmlns="http://www.w3.org/2000/svg" xmlns:xlink="http://www.w3.org/1999/xlink" x="0px" y="0px"
	 viewBox="0 0 24 24" style="enable-background:new 0 0 24 24;" xml:space="preserve">
<style type="text/css">
	.st0{fill:#D81E06;}
</style>
<path class="st0" d="M5.1,18.7c0.3,0.2,1-0.2,1.4-0.7c0.3-0.4,1.1-1.5,1.1-1.5s-1.3,0.4-2,1C5.1,18.1,5,18.6,5.1,18.7z M11.4,11.5
	c0,0-0.2,0.9-0.7,1.8c-0.5,0.9-0.9,1.4-0.9,1.4s1.3-0.3,1.9-0.4c0.6-0.1,1.4-0.2,1.7-0.2c0,0-0.7-0.7-0.9-1.1
	C12.2,12.7,11.4,11.5,11.4,11.5z M11.8,7.4c0-0.5,0.3-1.9-0.4-2.1c0,0-0.8,0-0.7,1.3c0,0.8,0.6,2.5,0.6,2.5S11.8,7.9,11.8,7.4z
	 M16.9,14.9c-0.7-0.1-1.4-0.1-1.4-0.1s1.4,1.3,1.9,1.7c0.4,0.4,1.2,0.2,1.4-0.2C19.1,15.5,17.6,15,16.9,14.9z"/>
<path class="st0" d="M-0.1,0v24h24V0C23.9,0-0.1,0-0.1,0z M17.7,17.8c-2.2-0.5-3.6-2.9-3.6-2.9s-0.8,0-2.2,0.2
	C10.6,15.3,9.1,16,9.1,16S7.5,19,5.9,19.5c-1.5,0.5-2.7-0.8-1.4-2.4c1.2-1.4,3.7-1.9,3.7-1.9s1-1.2,1.6-2.3c0.5-1.1,1-2.5,1-2.5
	s-1-2.4-1.1-3.7c-0.1-1.3,0.7-2.3,1.5-2.4c1-0.1,2.2,0.9,0.5,5.9c0,0,0.5,1.2,1.2,2c0.7,0.8,1.6,1.7,1.6,1.7s2.6-0.3,4.3,0.6
	C20.7,15.4,19.8,18.3,17.7,17.8z"/>
</svg>
