<?xml version="1.0" encoding="utf-8"?>
<!-- Generator: Adobe Illustrator 21.0.0, SVG Export Plug-In . SVG Version: 6.00 Build 0)  -->
<svg version="1.1" id="图层_1" xmlns="http://www.w3.org/2000/svg" xmlns:xlink="http://www.w3.org/1999/xlink" x="0px" y="0px"
	 viewBox="0 0 24 24" style="enable-background:new 0 0 24 24;" xml:space="preserve">
<style type="text/css">
	.st0{fill:#404040;}
	.st1{fill:#CE593B;}
	.st2{fill:#FFFFFF;}
</style>
<path class="st0" d="M14.6,3.1v4.5c0.6-0.7,1.5-1,2.4-1v3.5h3.5c0,2-1.6,3.5-3.5,3.5c-0.9,0-1.8-0.4-2.4-1v2.5h6.8v1h-6.8v1.6h6.8v1
	h-6.8v2.1H24V3.1H14.6L14.6,3.1z"/>
<path class="st1" d="M0,2.6v18.8L13.5,24V0L0,2.6z M10.4,10c-0.4,4-4.7,3.7-4.7,3.7v3.6H3.6V6.8c0,0,3.2-0.2,4.3,0
	C10.5,7.2,10.4,10,10.4,10z M5.5,8.4V12c0,0,2.6,0,2.5-1.8C7.9,8.8,7.3,8.6,5.5,8.4z"/>
<path class="st2" d="M17.5,9.5V6C19.5,6,21,7.6,21,9.5L17.5,9.5L17.5,9.5z"/>
</svg>
