<?xml version="1.0" encoding="utf-8"?>
<!-- Generator: Adobe Illustrator 21.0.0, SVG Export Plug-In . SVG Version: 6.00 Build 0)  -->
<svg version="1.1" id="图层_1" xmlns="http://www.w3.org/2000/svg" xmlns:xlink="http://www.w3.org/1999/xlink" x="0px" y="0px"
	 viewBox="0 0 24 24" style="enable-background:new 0 0 24 24;" xml:space="preserve">
<style type="text/css">
	.st0{fill:#4266A7;}
	.st1{fill:#FFFFFF;}
	.st2{font-family:'PangMenZhengDao';}
	.st3{font-size:10px;}
	.st4{fill:#404040;}
</style>
<path class="st0" d="M0,21.4L13.5,24V0L0,2.6"/>
<text transform="matrix(1 0 0 1 1.4375 15.2036)" class="st1 st2 st3">W</text>
<polygon class="st4" points="14.7,3.1 14.7,4.7 22,4.7 22,5.7 14.7,5.7 14.7,7.3 22,7.3 22,8.3 14.7,8.3 14.7,9.9 22,9.9 22,10.9 
	14.7,10.9 14.7,12.5 22,12.5 22,13.5 14.7,13.5 14.7,15.1 22,15.1 22,16.1 14.7,16.1 14.7,17.7 22,17.7 22,18.7 14.7,18.7 
	14.7,20.8 24,20.8 24,3.1 "/>
</svg>
